<?xml version="1.0" standalone="no"?>
<!DOCTYPE svg PUBLIC "-//W3C//DTD SVG 1.1//EN" "http://www.w3.org/Graphics/SVG/1.1/DTD/svg11.dtd" >
<!--
2013-9-30: Created.
-->
<svg>
<metadata>
Created by iconfont
</metadata>
<defs>

<font id="iconfont" horiz-adv-x="1024" >
  <font-face
    font-family="iconfont"
    font-weight="500"
    font-stretch="normal"
    units-per-em="1024"
    ascent="896"
    descent="-128"
  />
    <missing-glyph />
    
    <glyph glyph-name="x" unicode="x" horiz-adv-x="1001"
d="M281 543q-27 -1 -53 -1h-83q-18 0 -36.5 -6t-32.5 -18.5t-23 -32t-9 -45.5v-76h912v41q0 16 -0.5 30t-0.5 18q0 13 -5 29t-17 29.5t-31.5 22.5t-49.5 9h-133v-97h-438v97zM955 310v-52q0 -23 0.5 -52t0.5 -58t-10.5 -47.5t-26 -30t-33 -16t-31.5 -4.5q-14 -1 -29.5 -0.5
t-29.5 0.5h-32l-45 128h-439l-44 -128h-29h-34q-20 0 -45 1q-25 0 -41 9.5t-25.5 23t-13.5 29.5t-4 30v167h911zM163 247q-12 0 -21 -8.5t-9 -21.5t9 -21.5t21 -8.5q13 0 22 8.5t9 21.5t-9 21.5t-22 8.5zM316 123q-8 -26 -14 -48q-5 -19 -10.5 -37t-7.5 -25t-3 -15t1 -14.5
t9.5 -10.5t21.5 -4h37h67h81h80h64h36q23 0 34 12t2 38q-5 13 -9.5 30.5t-9.5 34.5q-5 19 -11 39h-368zM336 498v228q0 11 2.5 23t10 21.5t20.5 15.5t34 6h188q31 0 51.5 -14.5t20.5 -52.5v-227h-327z" />
    

    
    <glyph glyph-name="zanting2" unicode="&#58899;" d="M754.375399-40.139953 633.187444-40.139953c-33.46246 0-60.594489 27.130917-60.594489 60.592007L572.592954 747.54897c0 33.461089 27.132029 60.590983 60.594489 60.590983l121.187955 0c33.46246 0 60.593466-27.129894 60.593466-60.590983l0-727.096916C814.968865-13.010059 787.837859-40.139953 754.375399-40.139953zM754.375399 717.252966c0 16.731056-13.550153 30.29498-30.296221 30.29498l-60.594489 0c-16.746069 0-30.296221-13.564947-30.296221-30.29498l0-666.505933c0-16.745383 13.550153-30.29498 30.296221-30.29498l60.594489 0c16.746069 0 30.296221 13.549597 30.296221 30.29498L754.375399 717.252966zM390.812556-40.139953 269.624601-40.139953c-33.46246 0-60.593466 27.130917-60.593466 60.592007L209.031135 747.54897c0 33.461089 27.131006 60.590983 60.593466 60.590983l121.187955 0c33.46246 0 60.593466-27.129894 60.593466-60.590983l0-727.096916C451.406022-13.010059 424.275017-40.139953 390.812556-40.139953zM390.812556 717.252966c0 16.731056-13.551176 30.29498-30.296221 30.29498l-60.594489 0c-16.746069 0-30.296221-13.564947-30.296221-30.29498l0-666.505933c0-16.745383 13.551176-30.29498 30.296221-30.29498l60.594489 0c16.746069 0 30.296221 13.549597 30.296221 30.29498L390.812556 717.252966z"  horiz-adv-x="1024" />

    
    <glyph glyph-name="zhifubao" unicode="&#59051;" d="M1023.648242 110.722129 1023.648242 614.503779c0 108.597339-88.13141 196.728749-196.792705 196.728749L197.080507 811.232528C88.483168 811.232528 0.351758 723.101118 0.351758 614.503779l0-629.77503c0-108.597339 88.067454-196.728749 196.728749-196.728749l629.77503 0c96.765474 0 177.286116 69.967897 193.722816 162.000625-52.188121 22.576479-278.336644 120.237337-396.143651 176.454687-89.666354-108.597339-183.553807-173.768534-325.088502-173.768534s-235.997752 87.172069-224.677534 193.850728C82.151521 216.569359 130.1825 331.050653 338.80707 311.416151 448.747486 301.119231 499.080882 280.589345 588.747236 250.977703c23.216039 42.53076 42.466804 89.346574 57.112735 139.168322L248.245331 390.146025 248.245331 429.542939l196.728749 0L444.97408 500.278309 205.011055 500.278309 205.011055 543.640497l239.963025 0L444.97408 645.714321c0 0 2.174505 15.989008 19.826369 15.989008L563.164824 661.703329l0-118.062832 255.824121 0 0-43.362188-255.824121 0L563.164824 429.542939l208.688527 0c-19.186809-78.090313-48.286803-149.848979-84.74174-212.525888C747.741927 195.080132 1023.648242 110.722129 1023.648242 110.722129L1023.648242 110.722129 1023.648242 110.722129zM283.676972 20.224346c-149.529199 0-173.19293 94.399101-165.262382 133.859971 7.866592 39.269003 51.164824 90.497783 134.307663 90.497783 95.550309 0 181.123478-24.431204 283.836862-74.444819C464.416714 76.185872 375.773656 20.224346 283.676972 20.224346L283.676972 20.224346z"  horiz-adv-x="1024" />

    
    <glyph glyph-name="quan" unicode="&#58921;" d="M517.71977 710.994562c-229.782384 0-416.057881-186.276521-416.057881-416.057881 0-229.782384 186.275497-416.058904 416.057881-416.058904s416.058904 186.276521 416.058904 416.058904C933.778674 524.718041 747.502154 710.994562 517.71977 710.994562zM517.71977-89.118322c-212.092489 0-384.053979 171.962513-384.053979 384.055003 0 212.091466 171.96149 384.053979 384.053979 384.053979s384.053979-171.96149 384.053979-384.053979C901.773749 82.844192 729.812259-89.118322 517.71977-89.118322z"  horiz-adv-x="1024" />

    
    <glyph glyph-name="dianzan" unicode="&#59267;" d="M936.46076 377.136821c-19.866467 32.019251-53.592592 50.050929-88.612177 51.427276-1.815345 0.280386-3.65832 0.466628-5.548366 0.466628l-205.092052 0.223081c13.908778 39.759539 21.50785 82.482573 21.50785 126.996392 0 28.869514-3.279696 56.961316-9.29776 84.020602l-0.541329-0.069585c-10.945283 47.400566-53.327556 82.779332-104.060007 82.779332-59.042721 0-106.896612-47.859008-106.896612-106.891496 0-3.26537 0.205685-6.475482 0.485047-9.67229-3.172249-113.469308-92.074022-205.450209-204.270337-213.480092l0-0.690732-121.93819-0.284479c-1.474584 0.181125-2.958378 0.302899-4.473895 0.302899-20.299325 0-36.756135-16.451694-36.756135-36.745902l-0.330528-441.110463c0-20.290115 16.446577-36.741809 36.745902-36.741809 1.992377 0 3.933589 0.200568 5.840008 0.50449l135.654586-0.056282c1.795902-0.270153 3.607154-0.448208 5.467525-0.448208 1.862417 0 3.667529 0.178055 5.450129 0.443092l509.99739-0.213871 0-0.220011c19.978007-0.036839 40.202631 5.337565 58.314127 16.84669 17.192567 10.937097 30.126134 25.950022 38.625716 42.932812 2.332115 3.387144 4.170996 7.198959 5.2864 11.397584l79.397305 350.455767c1.101077 4.155646 1.399883 8.330736 1.073448 12.393261C954.138374 333.892925 949.099614 356.772005 936.46076 377.136821zM291.316344-53.182878l-73.486688 0.017396 0.276293 367.111099c0 0 44.896536 0.283456 73.560366 9.1678L291.316344-53.182878z"  horiz-adv-x="1024" />

    
    <glyph glyph-name="failure" unicode="&#58966;" d="M510.558 728.908c-243.117 0-440.908-197.791-440.908-440.908s197.791-440.908 440.908-440.908 440.908 197.791 440.908 440.908-197.791 440.908-440.908 440.908zM510.558-140.557c-236.308 0-428.557 192.249-428.557 428.557s192.249 428.557 428.557 428.557 428.557-192.249 428.557-428.557-192.249-428.557-428.557-428.557zM667.239 456.48c-9.65 9.644-25.288 9.644-34.938 0l-136.74-136.74-136.74 136.74c-9.65 9.644-25.288 9.644-34.938 0-9.647-9.65-9.647-25.288 0-34.938l136.74-136.74-136.74-136.74c-9.647-9.65-9.647-25.288 0-34.938 4.825-4.822 11.146-7.234 17.469-7.234 6.324 0 12.644 2.412 17.469 7.234l136.74 136.74 136.74-136.74c4.825-4.822 11.145-7.234 17.469-7.234s12.644 2.412 17.469 7.234c9.647 9.65 9.647 25.288 0 34.938l-136.74 136.74 136.74 136.74c9.647 9.65 9.647 25.288 0 34.938z"  horiz-adv-x="1024" />

    
    <glyph glyph-name="iconfenxiang1" unicode="&#58919;" d="M817.067 157.867c-14.933 0-29.867-2.133-44.8-6.4l-153.6 305.067c38.4 29.867 64 78.933 64 132.267 0 91.733-74.667 166.4-166.4 166.4-91.733 0-166.4-74.667-166.4-166.4 0-53.333 25.6-102.4 66.133-132.267l-151.467-305.067c-14.933 4.267-29.867 6.4-44.8 6.4-91.733 0-166.4-74.667-166.4-166.4s74.667-166.4 166.4-166.4 166.4 74.667 166.4 166.4c0 53.333-25.6 102.4-66.133 132.267l151.467 305.067c14.933-4.267 29.867-6.4 44.8-6.4s29.867 2.133 44.8 6.4l153.6-307.2c-38.4-29.867-64-78.933-64-132.267 0-91.733 74.667-166.4 166.4-166.4s166.4 74.667 166.4 166.4-74.667 168.533-166.4 168.533zM217.6-113.067c-57.6 0-102.4 46.933-102.4 102.4s46.933 102.4 102.4 102.4 102.4-46.933 102.4-102.4-44.8-102.4-102.4-102.4zM411.733 588.8c0 57.6 46.933 102.4 102.4 102.4 57.6 0 102.4-46.933 102.4-102.4s-46.933-102.4-102.4-102.4c-55.467 0-102.4 44.8-102.4 102.4zM817.067-113.067c-57.6 0-102.4 46.933-102.4 102.4s46.933 102.4 102.4 102.4 102.4-46.933 102.4-102.4-44.8-102.4-102.4-102.4z"  horiz-adv-x="1024" />

    
    <glyph glyph-name="red" unicode="&#58893;" d="M484 802.332c-231.038 0-418.333-187.296-418.333-418.335 0-231.038 187.296-418.327 418.333-418.327 231.036 0 418.333 187.289 418.333 418.327 0.001 231.039-187.297 418.335-418.333 418.335zM372.207 84.119c-0.412-8.174-4.906-12.669-13.493-13.493-6.545 0-11.863 0.614-15.946 1.841-4.504 1.639-6.545 4.906-6.133 9.813 1.629 4.906 4.695 7.148 9.199 6.746 6.948-1.639 10.215-0.613 9.813 3.066v96.902h-12.266c-4.504 0.402-6.746 3.268-6.746 8.586 0.402 4.907 2.855 7.562 7.359 7.974h36.185c2.453 0 4.083-1.025 4.906-3.066 1.227 2.855 3.469 4.494 6.747 4.906h82.183c4.495-0.412 6.747-3.277 6.747-8.587-0.412-5.318-2.865-8.184-7.36-8.586h-36.798l-2.453-11.652h23.919c10.215 0.402 14.92-3.891 14.106-12.88v-63.17c-0.412-4.504-3.277-6.957-8.586-7.36-5.318 0.403-8.184 2.856-8.586 7.36v57.037c0 1.227-0.613 1.84-1.84 1.84h-43.545c-0.824-0.412-1.438-1.025-1.84-1.84v-55.811c-0.412-4.906-3.277-7.57-8.586-7.974-5.318 0.403-8.184 3.067-8.586 7.974v61.943c0 8.586 3.68 12.88 11.040 12.88h14.719l3.066 11.652h-25.759c-2.453 0-5.117 1.016-7.973 3.066-1.227-2.865-3.479-4.293-6.746-4.293h-6.747l0-104.874zM479.536 71.854c-3.277-4.907-7.571-5.722-12.879-2.454-2.865 1.227-7.571 3.891-14.106 7.974-6.133 3.277-10.838 5.52-14.106 6.746-6.133 2.855-8.586 6.334-7.359 10.426-1.227-2.051-3.68-4.504-7.36-7.359-0.412-0.412-0.824-0.824-1.227-1.227-9.41-7.762-20.239-13.896-32.505-18.399-5.73-1.629-9.813-0.201-12.266 4.294-1.639 4.906 0 8.586 4.906 11.039 18.802 7.762 30.253 15.534 34.345 23.306 4.494 7.359 6.746 21.054 6.746 41.091 0.403 5.722 3.067 8.788 7.973 9.2 5.309-0.412 8.174-3.479 8.586-9.2 0.814-20.852-1.639-36.798-7.36-47.837 4.083 4.906 9.401 5.107 15.946 0.613 4.907-2.865 11.442-6.546 19.626-11.040 3.68-2.453 6.334-4.092 7.973-4.906 4.906-2.857 5.922-6.949 3.067-12.267zM556.198 73.693h-41.704c-7.772 0.412-11.864 3.891-12.267 10.426v34.345c-0.412 8.989 3.68 13.282 12.267 12.88h42.931c7.763 0.402 11.653-3.891 11.653-12.88v-34.958c0.402-6.535-3.89-9.813-12.88-9.813zM614.462 78.6c-6.545 0-11.652 0.824-15.332 2.453-4.092 2.051-5.318 5.309-3.68 9.813 1.629 4.906 5.107 6.747 10.426 5.52 11.040-2.453 15.735 1.841 14.106 12.88-0.412 8.174-5.933 18.399-16.56 30.665-3.68 3.68-4.293 9.2-1.84 16.56 4.494 13.895 7.561 24.532 9.199 31.892h-16.559c-1.227 0-2.051-0.824-2.453-2.453v-110.395c-0.412-5.31-3.067-8.175-7.974-8.587-5.318 0.412-8.184 3.277-8.586 8.587v65.010c-1.227-1.639-2.865-2.453-4.906-2.453h-69.304c-4.504 0.402-6.957 3.268-7.359 8.586 0.402 5.31 2.855 8.175 7.359 8.587h14.72c-0.824 0.814-3.68 5.721-8.586 14.719-2.051 5.31-0.613 8.989 4.293 11.040h-7.36c-4.504 0.402-6.957 3.268-7.359 8.586 0.402 5.309 2.855 8.174 7.359 8.586h22.079c-0.824 1.227-1.227 2.453-1.227 3.681-1.227 4.082 0.613 7.359 5.52 9.813 5.721 2.041 9.401 1.016 11.040-3.066 1.227-3.68 2.654-7.158 4.293-10.427h20.239c4.494-0.412 6.947-3.277 7.359-8.586-0.412-5.318-2.865-8.184-7.359-8.586h-47.225c2.855-1.639 6.334-7.36 10.426-17.173 1.227-4.092 0.814-6.957-1.227-8.586h13.493c0.402 1.227 1.016 2.855 1.84 4.906 2.453 6.133 4.082 11.039 4.906 14.72 1.629 4.082 5.107 5.721 10.426 4.906 4.906-2.051 6.747-5.318 5.521-9.813-0.824-2.051-1.639-4.504-2.454-7.359-1.227-3.277-2.252-5.932-3.066-7.973h11.040c2.453 0 4.082-0.613 4.906-1.84v41.704c0 8.175 3.066 12.056 9.199 11.653h36.799c9.4 0 13.080-5.117 11.039-15.333 0-0.412-1.025-3.891-3.066-10.426-3.277-10.226-5.52-17.786-6.746-22.692-1.227-3.68-1.84-6.344-1.84-7.973 0.402-1.228 1.629-3.067 3.68-5.521 8.586-13.090 13.281-25.356 14.105-36.798 0.404-18.814-7.358-28.415-23.304-28.827zM646.896 429.685c-7.488-7.449-18.815-7.642-25.649-0.806-0.538 0.537-1.074 0.922-1.536 1.535l-116.959 116.728-0.192-280.106c0-9.139-8.601-16.549-19.198-16.549-10.598 0-18.738 7.41-18.738 16.549 0 0.729-0.115 1.306 0 2.034l-0.192 278.072-116.919-116.728c-0.422-0.652-0.959-0.999-1.536-1.535-6.834-6.874-18.162-6.681-25.649 0.806-7.488 7.488-8.025 19.122-1.152 25.995l147.944 148.29c2.112 3.263 5.26 5.913 9.369 7.333 2.074 0.807 4.262 1.152 6.528 1.113 0.23 0 0.383 0.116 0.614 0.116 0.153 0 0.307-0.078 0.46-0.078 2.304 0.078 4.57-0.307 6.72-1.152 3.994-1.421 7.142-4.070 9.254-7.219l147.983-148.403c6.872-6.835 6.335-18.507-1.152-25.995zM636.605 657.879h-304.834c-9.407 0-17.049 7.564-17.049 16.857 0 9.292 7.642 16.856 17.049 16.856h304.835c9.445 0 17.048-7.564 17.048-16.856-0.001-9.293-7.641-16.857-17.049-16.857zM549.452 114.171h-28.212c-1.227 0-2.051-0.824-2.453-2.453v-19.013c0.402-1.639 1.227-2.453 2.453-2.453h28.212c1.629 0.402 2.453 1.227 2.453 2.453v19.013c0 1.629-0.824 2.453-2.453 2.453z"  horiz-adv-x="1024" />

    
    <glyph glyph-name="unie63f" unicode="&#58928;" d="M818.016-60l-51.008 0q-23.008 0-39.488 4t-28.512 12-20 20.992-15.008 28.992q-12 30.016-22.016 54.496t-16.992 42.496q-8.992 20.992-16 38.016l-196 0q-6.016-18.016-14.016-40-6.016-18.016-16-43.488t-24-55.488q-16-35.008-36.512-48.512t-46.496-13.504l-54.016 0q-35.008 0-47.008 15.488t2.016 52.512q14.016 35.008 32.992 83.008t40 102.016q22.016 55.008 44.992 111.008 22.016 56.992 44 111.008 50.016 127.008 104.992 264 6.016 14.016 15.008 24.992 8 8 20.512 16t32.512 8q20.992 0 34.016-8t20.992-19.008q10.016-11.008 15.008-26.016 56-138.016 107.008-264.992 10.016-27.008 20.992-55.008t23.008-56q23.008-56 44-110.016 20.992-52.992 39.008-99.008 19.008-47.008 32-80.992 11.008-27.008 3.008-48t-32.992-20.992l0 0zM588.992 239.008l-74.016 268-0.992 0-84-268 159.008 0z"  horiz-adv-x="1024" />

    
    <glyph glyph-name="zanting" unicode="&#59115;" d="M512 860.16c64.29696 0 126.651392-12.58496 185.331712-37.404672 56.696832-23.981056 107.6224-58.318848 151.363584-102.060032 43.741184-43.741184 78.078976-94.667776 102.060032-151.363584C975.57504 510.651392 988.16 448.29696 988.16 384s-12.58496-126.651392-37.404672-185.331712c-23.981056-56.696832-58.318848-107.6224-102.060032-151.363584-43.741184-43.741184-94.667776-78.078976-151.363584-102.060032C638.651392-79.57504 576.29696-92.16 512-92.16s-126.651392 12.58496-185.331712 37.404672c-56.696832 23.981056-107.6224 58.318848-151.363584 102.060032-43.741184 43.741184-78.078976 94.667776-102.060032 151.363584C48.42496 257.348608 35.84 319.70304 35.84 384s12.58496 126.651392 37.404672 185.331712c23.981056 56.696832 58.318848 107.6224 102.060032 151.363584s94.667776 78.078976 151.363584 102.060032C385.348608 847.57504 447.70304 860.16 512 860.16M512 896C229.230592 896 0 666.769408 0 384s229.230592-512 512-512 512 229.230592 512 512S794.769408 896 512 896L512 896zM385.836032 643.058688 714.067968 384 385.836032 124.941312 385.836032 643.058688M354.369536 707.979264l0-647.958528L764.857344 384 354.369536 707.979264 354.369536 707.979264z"  horiz-adv-x="1024" />

    
    <glyph glyph-name="dizhi" unicode="&#58887;" d="M896 512C896 232.704 571.08-95.424 557.264-109.256 544.768-121.752 528.376-128 512-128 495.624-128 479.248-121.752 466.752-109.256 452.92-95.424 128 232.704 128 512 128 723.736 300.264 896 512 896 723.736 896 896 723.736 896 512L896 512ZM512 320C618.048 320 704 405.952 704 512 704 618.032 618.048 704 512 704 405.968 704 320 618.032 320 512 320 405.952 405.968 320 512 320L512 320Z"  horiz-adv-x="1024" />

    
    <glyph glyph-name="laba" unicode="&#58901;" d="M16.176386 585.367747l118.939504 0L135.11589 316.413402 16.176386 316.413402 16.176386 585.367747 16.176386 585.367747zM16.176386 585.367747M204.323623 621.216085c0 0 414.001929 15.129422 631.162021 273.727345 0 0 185.74632 44.409383 171.565427-442.601984 0 0 19.770386-335.363538-169.817098-382.606368 0 0-142.344654 184.614155-632.781351 206.993376L204.323623 621.216085 204.323623 621.216085zM204.323623 621.216085M281.40339 195.403828c0 0 17.404374-157.894464 145.461901-323.246645 0 0 111.275387-4.973329 128.057526 41.029584 0 0 11.80881 30.459173-23.623691 69.622051-11.341375 18.003845-112.193564 103.187847-128.673691 212.595011L281.40339 195.403828 281.40339 195.403828zM281.40339 195.403828"  horiz-adv-x="1024" />

    
    <glyph glyph-name="dianzan1" unicode="&#58970;" d="M190.193 424.589c14.446 0 26.139 11.719 26.139 26.138 0 14.445-11.693 26.165-26.139 26.165-0.271 0-0.49-0.149-0.737-0.149l-62.497-0.146c-1.425 0.196-2.9 0.296-4.374 0.296-19.677 0-35.621-16.142-35.621-36.114L86.623 7.45c0-19.949 15.967-35.598 35.67-35.598 1.917 0 3.809-0.293 5.649 0l61.023-0.022c0.099 0 0.148-0.049 0.248-0.049 0.097 0 0.146 0.049 0.245 0.049l0.737 0 0 0.147c13.414 0.541 24.174 11.423 24.174 24.961 0 13.56-10.76 24.441-24.174 24.982l0 0.394-50.949 0 1.45 402.276 49.499 0L190.195 424.589zM926.522 462.052c-19.283 31.445-47.339 44.172-81.289 45.546-1.771 0.247-3.537 0.393-5.381 0.393l-205.447 0.689c13.463 39.06 22.699 85.589 22.699 129.317 0 28.35-3.194 55.962-9.042 82.543l-0.49-0.049c-10.639 46.579-51.736 81.315-100.967 81.315-57.264 0-95.466-48.15-95.466-106.126 0-3.242-0.295-6.388 0-9.532-2.996-108.387-91.24-195.549-196.237-207.513l0-54.882-0.786-222.227L254.116-28.22l10.71 0 500.025-0.222 8.746 0.243c19.356-0.049 30.239 4.818 47.804 16.116 16.683 10.761 29.236 25.501 37.491 42.156 2.26 3.341 4.028 7.075 5.105 11.201L941.018 385.6c1.056 4.053 1.349 8.182 1.056 12.161C943.644 419.554 938.781 442.056 926.522 462.052zM893.826 409.162l-82.984-367.783-0.1 0.049c-2.555-6.142-6.879-11.596-12.872-15.428-4.177-2.727-8.773-4.351-13.414-4.964-1.498 0.195-3.047 0-4.62 0l-477.029 0.541-0.172 407.408c89.323 40.267 154.842 79.671 188.597 173.662 0.072-0.025 0.125-0.049 0.195-0.073 2.999 9.137 6.313 20.734 8.697 33.164 5.552 29.186 5.259 58.124 5.259 58.124-4.938 37.98 25.94 52.965 44.364 52.965 25.305-0.861 50.264-33.657 50.264-52.327 0 0 5.601-27.564 5.649-57.191 0.049-37.366-4.667-56.848-4.667-56.848l-0.467 0c-5.872-30.879-16.214-60.139-30.465-86.964l0.369-0.343c-2.359-4.816-3.71-10.221-3.71-15.943 0-19.923 19.089-21.742 38.766-21.742l238.763-0.271c0 0 14.666-0.465 14.69-0.465l0-0.101c12.132 0.639 24.222-5.208 31.101-16.41 5.504-9.016 6.438-19.604 3.486-28.988L893.826 409.162zM264.827-28.318c0.319-0.024 0.441-0.024 0.295 0.024 0.244 0.048 0.368 0.074-0.295 0.074s-0.54-0.026-0.271-0.074C264.434-28.343 264.532-28.343 264.827-28.318z"  horiz-adv-x="1024" />

    
    <glyph glyph-name="wechat" unicode="&#58904;" d="M290.016 603.008q-18.016 0-31.488-10.496t-13.504-27.008 13.504-27.008 31.488-10.496q16.992 0 27.488 10.496t10.496 27.488-10.496 27.008-27.488 10.016zM600.992 384q-12 0-20.992-9.504t-8.992-20.992 8.992-20.992 20.992-9.504q16 0 27.008 8.992t11.008 20.992-11.008 21.504-27.008 9.504zM1020.992 737.984q0 64-45.504 109.504t-109.504 45.504h-708.992q-64 0-109.504-45.504t-45.504-109.504v-708.992q0-64 45.504-109.504t109.504-45.504h708.992q64 0 109.504 45.504t45.504 109.504v708.992zM388.992 216.992q-28.992 0-106.016 15.008l-106.016-52.992 30.016 91.008q-120.992 84.992-120.992 204.992 0 107.008 88.512 182.016t214.496 75.008q111.008 0 198.496-60.512t106.496-151.488q-16 0.992-28.992 0.992-107.008 0-182.016-70.016t-75.008-168.992q0-32 8.992-64-16-0.992-28-0.992zM836 111.008l22.016-76-83.008 46.016q-60-16-91.008-16-107.008 0-182.016 64.512t-75.008 155.488 75.008 155.488 182.016 64.512q103.008 0 180.512-64.992t77.504-155.008q0-95.008-106.016-174.016v0zM767.008 384q-11.008 0-20.512-9.504t-9.504-20.992 9.504-20.992 20.512-9.504q16.992 0 27.488 8.992t10.496 20.992-10.496 21.504-27.488 9.504zM502.016 528q16.992 0 27.488 10.496t10.496 27.488-10.496 27.008-27.488 10.016q-18.016 0-31.488-10.496t-13.504-27.008 13.504-27.008 31.488-10.496z"  horiz-adv-x="1024" />

    
    <glyph glyph-name="huidaodingbu" unicode="&#59045;" d="M511.99872 896C229.23008 896 0 666.76864 0 384c0-282.76992 229.23008-512 512-512 282.7712 0 512 229.23008 512 512C1024 666.76864 794.76992 896 511.99872 896zM743.37024 291.00032c-8.61696 0-16.47744 3.49312-22.1376 9.13792L542.752 478.53824l0-414.38592c0-17.24544-13.98528-31.2448-31.24608-31.2448-17.27744 0-31.27552 14.00064-31.27552 31.2448l0 0.02944L480.2304 477.568 303.33952 300.6592c-5.7088-5.96736-13.7536-9.67552-22.67904-9.67552-17.35168 0-31.41376 14.06208-31.41376 31.4304 0 8.6144 3.49184 16.43008 9.09312 22.0928l230.90816 230.9376c5.72288 6.03136 13.76768 9.81504 22.74048 9.81504 8.8128 0 16.79872-3.67744 22.47552-9.53856L765.61408 344.5376l0-0.02944c5.64736-5.6448 9.13792-13.47712 9.13792-22.12224C774.752 305.04704 760.70656 291.00032 743.37024 291.00032zM772.9216 614.1376 251.07712 614.1376c-17.2608 0-31.27552 14.03008-31.27552 31.2768 0 17.2928 14.01472 31.27808 31.27552 31.27808l521.84576 0c17.25952 0 31.27808-13.98528 31.27808-31.27808C804.19968 628.16896 790.1824 614.1376 772.9216 614.1376z"  horiz-adv-x="1024" />

    
    <glyph glyph-name="pinglun-copy" unicode="&#58974;" d="M300.418 510.618c-29.078 0-52.655-24.45-52.655-54.622s23.576-54.623 52.655-54.623c29.078 0 52.655 24.45 52.655 54.623 0 30.171-23.576 54.622-52.655 54.622zM511.040 510.618c-29.078 0-52.655-24.45-52.655-54.622s23.577-54.623 52.655-54.623 52.655 24.45 52.655 54.623c0 30.171-23.577 54.622-52.655 54.622zM721.662 510.618c-29.078 0-52.656-24.45-52.656-54.622s23.577-54.623 52.656-54.623 52.655 24.45 52.655 54.623c0 30.171-23.577 54.622-52.655 54.622zM826.97 783.715h-631.862c-58.158 0-105.309-48.914-105.309-109.244v-409.646c0-60.331 48.207-115.942 107.701-115.942h160.485c27.973-29.799 143.749-149.663 143.749-149.663 5.141-5.347 13.472-5.347 18.613 0 0 0 84.767 96.107 139.995 149.663h164.238c59.495 0 107.702 55.612 107.702 115.942v409.646c0 60.33-47.153 109.244-105.311 109.244zM879.627 264.825c0-30.16-25.3-61.809-55.047-61.809h-161.513c-19.565 0-37.152-20.119-37.152-20.119l-113.409-117.626-113.384 117.626c0 0-21.598 20.119-40.108 20.119h-161.513c-29.748 0-55.046 31.649-55.046 61.809v409.646c0 30.172 23.576 54.623 52.655 54.623h631.862c29.078 0 52.657-24.452 52.657-54.623v-409.646z"  horiz-adv-x="1024" />

    
    <glyph glyph-name="feiyong" unicode="&#59032;" d="M10.681 383.726c0-277.869 225.244-503.126 503.126-503.126s503.126 225.244 503.126 503.126-225.244 503.126-503.126 503.126-503.126-225.244-503.126-503.126zM641.103 618.529h73.962l-137.305-198.483h117.889v-51.926h-151.745v-41.509h151.745v-50.862h-151.745v-126.838h-60.17v126.838h-150.478v50.862h150.478v41.509h-150.478v51.926h117.889l-138.562 198.483h73.35l129.153-189.172 126.035 189.172z"  horiz-adv-x="1024" />

    
    <glyph glyph-name="unie609" unicode="&#58969;" d="M512-127.968001q-15.9995 0-43.998625 26.495172t-54.494297 59.998125-55.006281 74.493672-41.502703 60.990094-18.015437 27.999125q-18.015437 28.991094-35.998875 59.486141t-42.014687 77.501578-42.014687 89.501203-30.495047 89.501203-12.511609 82.013437q0 102.012812 50.494422 188.506109t136.987719 136.987719 188.506109 50.494422q115.004406 0 210.009437-63.998 3.999875-3.007906 6.015812-7.007781t1.503953-8.991719-2.495922-8.991719q-4.991844-7.007781-12.511609-8.511734t-13.503578 3.487891q-84.989344 56.990219-188.986094 56.990219-136.987719 0-235.992625-95.005031-98.012937-95.997-103.004781-231.99275l0-11.999625q0-67.997875 46.494547-174.010562t106.012687-198.009812 114.012437-162.010937 73.501703-76.989594q19.999375 6.015812 75.005656 76.509609t113.500453 163.482891 103.99675 199.481766 45.502578 171.482641q0 95.997-50.014437 176.986469-3.999875 7.007781-2.015937 14.495547t7.99975 11.487641q3.999875 2.015937 8.991719 2.015937t9.503703-2.015937 7.487766-6.015812q27.007156-44.990594 40.990719-95.005031t14.015562-102.012812q0-43.998625-17.503453-102.492797t-45.502578-116.988344-51.006406-99.484891-46.014562-79.005531q-3.999875-4.991844-7.99975-11.487641t-15.487516-23.99925-22.495297-34.014937-27.007156-39.006781-30.495047-40.990719-31.007031-38.014812-30.495047-32.510984-27.487141-21.503328-23.487266-8.511734zM512 364.016624q-76.989594 0-131.483891 54.014312t-54.494297 131.003906 54.494297 131.483891 131.483891 54.494297 131.483891-54.494297 54.494297-131.483891q0-30.015062-9.503703-58.494172t-27.007156-51.006406-39.99875-39.99875-51.006406-26.495172-58.494172-8.991719zM512 697.990188q-39.99875 0-74.493672-19.999375t-54.494297-54.014312-19.999375-75.005656q0-60.990094 43.486641-104.988719t105.500703-43.998625q39.99875 0 74.493672 19.999375t54.494297 54.494297 19.999375 75.005656-19.999375 74.493672-54.494297 54.014312-74.493672 19.999375z"  horiz-adv-x="1024" />

    
    <glyph glyph-name="sousuo" unicode="&#58924;" d="M961.219584-20.31616 688.850944 252.053504c53.470208 62.217216 86.011904 142.891008 86.011904 231.169024 0 195.97312-159.427584 355.400704-355.400704 355.400704-195.97312 0-355.400704-159.427584-355.400704-355.400704 0-195.97312 159.427584-355.400704 355.400704-355.400704 77.601792 0 149.220352 25.276416 207.731712 67.638272l274.900992-274.900992L961.219584-20.31616zM105.873408 483.222528c0 172.914688 140.686336 313.588736 313.588736 313.588736 172.9024 0 313.588736-140.674048 313.588736-313.588736 0-172.91264-140.68736-313.588736-313.588736-313.588736C246.55872 169.633792 105.873408 310.309888 105.873408 483.222528z"  horiz-adv-x="1024" />

    
    <glyph glyph-name="tag10" unicode="&#58909;" d="M508.74077 661.293467c-47.146786 0-85.308945 38.505989-85.308945 86.049818 0 47.537689 38.162158 86.09689 85.308945 86.09689 47.096644 0 85.258803-38.559201 85.258803-86.09689C593.999572 699.799456 555.837414 661.293467 508.74077 661.293467L508.74077 661.293467zM508.74077 297.597141c-47.146786 0-85.308945 38.553061-85.308945 86.094844s38.162158 86.098937 85.308945 86.098937c47.096644 0 85.258803-38.557154 85.258803-86.098937S555.837414 297.597141 508.74077 297.597141L508.74077 297.597141zM508.74077-66.052113c-47.146786 0-85.308945 38.555108-85.308945 86.09689 0 47.539736 38.162158 86.09689 85.308945 86.09689 47.096644 0 85.258803-38.557154 85.258803-86.09689C593.999572-27.497005 555.837414-66.052113 508.74077-66.052113L508.74077-66.052113z"  horiz-adv-x="1024" />

    
    <glyph glyph-name="radio" unicode="&#58963;" d="M512.572028 831.978894c-247.112074 0-447.435519-200.324468-447.435519-447.435519 0-247.112074 200.323445-447.435519 447.435519-447.435519 247.111051 0 447.435519 200.323445 447.435519 447.435519C960.00857 631.654426 759.683079 831.978894 512.572028 831.978894zM801.432948 506.707716 454.691783 159.989063c-8.739035-8.739035-20.186761-13.108552-31.635511-13.108552-11.447726 0-22.896476 4.369517-31.635511 13.108552L212.469066 338.919269c-17.47807 17.45658-17.47807 45.791929 0 63.269999 17.47807 17.47807 45.791929 17.47807 63.269999 0l147.317207-147.295718 315.105654 315.084165c17.47807 17.47807 45.791929 17.47807 63.269999 0C818.909995 552.499645 818.909995 524.185786 801.432948 506.707716z"  horiz-adv-x="1024" />

    
    <glyph glyph-name="biaoqian" unicode="&#59055;" d="M1026.765 504.01l-28.762 184.877c-12.326 69.84-73.946 131.466-143.792 143.792l-184.877 28.762c-8.217 0-16.433 4.109-28.762 4.109-57.513 0-119.142-24.649-156.119-61.622l-398.502-398.502c-57.513-57.513-57.513-152.007 0-209.525l275.255-275.255c28.762-28.762 65.73-45.19 106.817-45.19s78.058 16.433 106.817 45.19l398.502 398.502c45.19 53.406 65.73 115.034 53.406 184.877zM784.377 553.309c-45.19 0-82.162 36.976-82.162 82.162s36.976 82.162 82.162 82.162 82.162-36.976 82.162-82.162c0-45.19-36.976-82.162-82.162-82.162z"  horiz-adv-x="1054" />

    
    <glyph glyph-name="gengduo" unicode="&#58929;" d="M223.962372 288.102133c-52.980346 0-95.983874 43.003528-95.983874 95.983874s43.003528 95.983874 95.983874 95.983874 95.983874-43.003528 95.983874-95.983874S276.942718 288.102133 223.962372 288.102133zM511.913993 288.102133c-52.980346 0-95.983874 43.003528-95.983874 95.983874s43.003528 95.983874 95.983874 95.983874 95.983874-43.003528 95.983874-95.983874S564.894339 288.102133 511.913993 288.102133zM800.037628 288.102133c-52.980346 0-95.983874 43.003528-95.983874 95.983874s43.003528 95.983874 95.983874 95.983874 95.983874-43.003528 95.983874-95.983874S852.84596 288.102133 800.037628 288.102133z"  horiz-adv-x="1024" />

    
    <glyph glyph-name="bofang" unicode="&#59096;" d="M511.998977 727.079776c-189.486632 0-343.078753-153.605424-343.078753-343.079776 0-189.489702 153.592121-343.078753 343.078753-343.078753 189.491749 0 343.079776 153.589051 343.079776 343.078753C855.078753 573.474352 701.491749 727.079776 511.998977 727.079776L511.998977 727.079776 511.998977 727.079776 511.998977 727.079776zM511.998977 89.931474c-162.15617 0-294.067502 131.908262-294.067502 294.067502 0 162.147984 131.911332 294.069549 294.067502 294.069549 162.161287 0 294.068526-131.921565 294.068526-294.069549C806.068526 221.84076 674.15924 89.931474 511.998977 89.931474L511.998977 89.931474 511.998977 89.931474 511.998977 89.931474zM449.297936 226.293165c-1.893116 0-3.78214 0.457418-5.531993 1.343601-4.137227 2.081405-6.721075 6.315846-6.721075 10.910491L437.044868 518.63128c0 4.556783 2.533706 8.743128 6.577812 10.863419 4.02057 2.104941 8.928347 1.794879 12.660344-0.803295l196.047048-136.38318c3.254114-2.261507 5.215792-5.958712 5.266957-9.906627 0.046049-3.964288-1.818415-7.695263-5.003967-10.04068l-196.047048-143.67219C454.394001 227.109764 451.856201 226.293165 449.297936 226.293165L449.297936 226.293165 449.297936 226.293165z"  horiz-adv-x="1024" />

    
    <glyph glyph-name="gou" unicode="&#58920;" d="M511.812644 828.534671C758.275063 828.534671 958.841909 629.253929 958.841909 384.373265 958.841909 139.492604 758.275066-59.782323 511.812644-59.782323 265.339697-59.782323 64.7787 139.491441 64.7787 384.373265 64.7787 629.255091 265.339699 828.534671 511.812644 828.534671L511.812644 828.534671ZM511.812644 891.984306C229.608183 891.984306 0.918545 664.766142 0.918545 384.373265 0.918545 104.052489 229.614031-123.237773 511.812644-123.237773 794.018274-123.237773 1022.70791 104.052489 1022.70791 384.373265 1022.706743 664.764979 794.017103 891.984306 511.812644 891.984306L511.812644 891.984306 511.812644 891.984306 511.812644 891.984306 511.812644 891.984306ZM794.566765 485.170091 794.566765 485.170091 483.605647 176.203714 483.605647 176.203714C476.265909 168.914985 466.125237 164.405459 454.921498 164.405459 443.721265 164.405459 433.578253 168.916147 426.244365 176.203714L426.244365 176.203714 250.476614 350.84022 250.476614 350.84022C243.136877 358.131277 238.598076 368.207356 238.598076 379.331157 238.598076 401.592719 256.756789 419.633141 279.154916 419.633141 290.357487 419.633141 300.495821 415.121293 307.836727 407.829073L307.836727 407.829073 454.920329 261.697459 737.206654 542.16243 737.206654 542.16243C744.546391 549.455812 754.684723 553.965338 765.883787 553.965338 788.28659 553.965338 806.446475 535.92259 806.446475 513.664516 806.447642 502.538387 801.91001 492.463471 794.566765 485.170091L794.566765 485.170091 794.566765 485.170091Z"  horiz-adv-x="1024" />

    
    <glyph glyph-name="shipinxuanzhong" unicode="&#58902;" d="M511.998465 896c-283.275715 0-511.977487-228.700749-511.977487-511.977487 0-283.277762 229.567489-511.978511 511.977487-511.978511 282.411021 0 511.979534 229.567489 511.979534 511.978511C1023.977999 667.299251 795.276227 896 511.998465 896zM707.782523 347.637838 443.562816 195.171354c-27.721365-15.59314-61.505819 4.330632-61.505819 35.516912L382.056997 536.49002c0 31.185256 34.651194 51.110051 61.505819 35.516912l264.219707-152.467507C734.636125 403.946284 734.636125 364.096694 707.782523 347.637838z"  horiz-adv-x="1024" />

    
    <glyph glyph-name="shijian" unicode="&#58886;" d="M512-23.503041c-54.024427 0-106.445334 10.587126-155.809625 31.465642-47.666626 20.161179-90.469478 49.01739-127.22152 85.769432-36.751019 36.751019-65.608254 79.55387-85.769432 127.220497-20.87954 49.363268-31.465642 101.785198-31.465642 155.809625 0 54.024427 10.586103 106.445334 31.465642 155.809625 20.161179 47.666626 49.018414 90.469478 85.769432 127.22152 36.752042 36.751019 79.554894 65.608254 127.22152 85.769432 49.363268 20.87954 101.785198 31.465642 155.809625 31.465642s106.445334-10.586103 155.809625-31.465642c47.666626-20.161179 90.469478-49.018414 127.220497-85.769432 36.752042-36.752042 65.608254-79.554894 85.769432-127.22152 20.878516-49.363268 31.465642-101.785198 31.465642-155.809625 0-54.024427-10.587126-106.446357-31.465642-155.809625-20.161179-47.666626-49.01739-90.469478-85.769432-127.220497-36.751019-36.752042-79.55387-65.608254-127.220497-85.769432C618.445334-12.915915 566.024427-23.503041 512-23.503041zM512 725.864088c-192.494129 0-349.099886-156.605757-349.099886-349.099886 0-192.495152 156.605757-349.10091 349.099886-349.10091s349.099886 156.605757 349.099886 349.10091C861.099886 569.257308 704.494129 725.864088 512 725.864088zM512 351.181547c-14.128789 0-25.582655 11.452843-25.582655 25.581632l0 263.583211c0 14.128789 11.453866 25.582655 25.582655 25.582655s25.582655-11.453866 25.582655-25.582655l0-263.583211C537.582655 362.63439 526.127765 351.181547 512 351.181547zM648.292106 214.887394c-6.547113 0-13.094226 2.496867-18.090007 7.492648L493.909993 358.674195c-9.990538 9.990538-9.990538 26.188452 0 36.178991 9.990538 9.989515 26.189476 9.989515 36.178991 0l136.292106-136.293129c9.990538-9.991562 9.990538-26.189476 0-36.178991C661.387355 217.386308 654.839219 214.887394 648.292106 214.887394z"  horiz-adv-x="1024" />

    
    <glyph glyph-name="jia" unicode="&#58903;" d="M831.078129 354.993363 192.921871 354.993363c-15.954367 0-29.006637 13.053294-29.006637 29.006637l0 0c0 15.954367 13.053294 29.006637 29.006637 29.006637l638.156258 0c15.954367 0 29.006637-13.053294 29.006637-29.006637l0 0C860.084767 368.046656 847.031473 354.993363 831.078129 354.993363zM482.992339 64.921871 482.992339 703.078129c0 15.954367 13.053294 29.006637 29.006637 29.006637l0 0c15.954367 0 29.006637-13.053294 29.006637-29.006637l0-638.156258c0-15.954367-13.053294-29.006637-29.006637-29.006637l0 0C496.045633 35.915233 482.992339 48.968527 482.992339 64.921871z"  horiz-adv-x="1024" />

    
    <glyph glyph-name="zanting3" unicode="&#59003;" d="M1093.485714 763.794286c-23.405714 0-42.057143-18.651429-42.057143-42.057143l0-688.091429c0-23.405714 18.651429-42.057143 42.057143-42.057143 23.405714 0 42.057143 18.651429 42.057143 42.057143L1135.542857 721.737143C1135.542857 745.142857 1116.891429 763.794286 1093.485714 763.794286L1093.485714 763.794286zM662.674286 763.794286c-23.405714 0-42.057143-18.651429-42.057143-42.057143l0-688.091429c0-23.405714 18.651429-42.057143 42.057143-42.057143 23.405714 0 42.057143 18.651429 42.057143 42.057143L704.731429 721.737143C704.914286 745.142857 686.08 763.794286 662.674286 763.794286L662.674286 763.794286z"  horiz-adv-x="1756" />

    
    <glyph glyph-name="fatie" unicode="&#59186;" d="M972.8 599.643843 972.8 794.071289C972.8 850.011526 927.066527 896 870.651428 896L153.348572 896C96.902287 896 51.2 850.364962 51.2 794.071289L51.2-26.071291C51.2-82.011525 96.933473-128 153.348572-128L870.651428-128C927.097713-128 972.8-82.364964 972.8-26.071291L972.8 270.310758 781.805839 79.653806 613.490627 239.737498 972.8 599.643843 972.8 599.643843ZM741.60855 39.527485C741.475661 39.559972 547.855921-23.27616 547.855921-23.27616 520.724081-32.080092 505.593412-17.170591 513.960464 9.703429L573.107901 199.67829C571.9923 198.49836 741.60855 39.527485 741.60855 39.527485L741.60855 39.527485ZM256 640C256 668.276979 279.330017 691.2 306.964356 691.2L717.035643 691.2C745.182479 691.2 768 668.474121 768 640 768 611.723021 744.669983 588.8 717.035643 588.8L306.964356 588.8C278.817519 588.8 256 611.525879 256 640L256 640ZM256 384C256 412.276979 278.718292 435.2 307.190143 435.2L460.809857 435.2C489.081392 435.2 512 412.474121 512 384 512 355.723023 489.281708 332.8 460.809857 332.8L307.190143 332.8C278.918608 332.8 256 355.525878 256 384L256 384ZM256 128C256 156.276977 278.664209 179.2 307.146576 179.2L358.453424 179.2C386.700898 179.2 409.6 156.474122 409.6 128 409.6 99.723023 386.935791 76.8 358.453424 76.8L307.146576 76.8C278.899102 76.8 256 99.525878 256 128L256 128Z"  horiz-adv-x="1024" />

    
    <glyph glyph-name="fabu" unicode="&#58900;" d="M974.592 671.68l-95.488-528.896-261.248 95.552 356.736 433.28zM1046.144 844.8c-21.632 7.296-56.064-6.208-57.92-7.04L75.52 388.096c-2.304-1.6-22.592-15.552-22.592-31.488 0-22.848 21.568-37.632 22.592-38.208l335.36-102.976 23.68 71.104-240 71.36 721.536 357.504-426.048-516.224-1.216-1.536v-275.84h78.336v245.76l321.28-111.36c0.768-0.448 22.336-7.36 37.824 0.256 15.36 7.68 22.656 29.184 23.104 30.848 21.312 116.48 127.552 698.368 127.552 705.28 0 27.072-10.88 45.696-30.72 52.288z"  horiz-adv-x="1088" />

    
    <glyph glyph-name="goback" unicode="&#58977;" d="M352.775 362.181c-5.627 0-11.226 2.142-15.51 6.426-8.569 8.569-8.569 22.45 0 31.019l318.451 318.438c8.569 8.569 22.45 8.569 31.019 0s8.569-22.45 0-31.019l-318.451-318.438c-4.285-4.285-9.883-6.426-15.509-6.426zM670.050 44.905c-5.627 0-11.226 2.142-15.51 6.426l-317.275 317.276c-8.569 8.569-8.569 22.45 0 31.019s22.45 8.569 31.019 0l317.275-317.275c8.569-8.569 8.569-22.45 0-31.019-4.284-4.285-9.882-6.427-15.509-6.427z"  horiz-adv-x="1024" />

    
    <glyph glyph-name="shibai" unicode="&#59024;" d="M512-128C229.1712-128 0 101.1712 0 384S229.1712 896 512 896s512-229.1712 512-512.1024c0-282.7264-229.2736-511.8976-512-511.8976z m-59.5968 226.7136h140.5952V201.728H452.4032v-103.0144z m65.8432 599.552c-69.2224 2.6624-90.112-75.4688-90.112-75.4688l33.9968-378.6752h1.4336l-1.4336-0.3072v0.3072h117.0432l0.4096 7.2704 33.9968 371.4048c-0.1024 0-22.6304 72.6016-95.3344 75.4688z"  horiz-adv-x="1024" />

    
    <glyph glyph-name="bofang1" unicode="&#59412;" d="M205.242549 881.652613l729.401051-402.193103c74.985155-40.900994 74.985155-146.561893 0-187.462886L205.242549-113.604895c-74.985155-40.900994-170.420806 10.225248-170.420807 92.027235V786.216962C34.821742 871.427365 130.257394 922.553607 205.242549 881.652613z"  horiz-adv-x="1024" />

    
    <glyph glyph-name="fuwuerji" unicode="&#58918;" d="M832 133.76 832 128c0-96.64-83.84-176-192-189.44L640-32c0 17.92-14.08 32-32 32l-128 0C462.08 0 448-14.08 448-32l0-64C448-113.92 462.08-128 480-128l128 0c159.36 0 288 114.56 288 256l0 5.76M896 133.76c37.12 13.44 64 48.64 64 90.24l0 128c0 41.6-26.88 76.8-64 90.24L896 448c0 211.84-172.16 384-384 384C300.16 832 128 659.84 128 448l0-5.76C90.88 428.8 64 393.6 64 352l0-128C64 170.88 106.88 128 160 128S256 170.88 256 224l0 128c0 41.6-26.88 76.8-64 90.24L192 448c0 176.64 143.36 320 320 320 176.64 0 320-143.36 320-320l0-5.76c-37.12-13.44-64-48.64-64-90.24l0-128c0-41.6 26.88-76.8 64-90.24M192 224C192 206.08 177.92 192 160 192S128 206.08 128 224l0 128C128 369.92 142.08 384 160 384S192 369.92 192 352L192 224zM896 224c0-17.92-14.08-32-32-32S832 206.08 832 224l0 128C832 369.92 846.08 384 864 384S896 369.92 896 352L896 224z"  horiz-adv-x="1024" />

    
    <glyph glyph-name="kongjian" unicode="&#58927;" d="M997.888 496.64c-21.376 28.16-336.384 63.488-336.384 63.488s-100.864 269.696-148.48 258.688c-47.488-10.88-140.928-275.584-140.928-275.584s-333.312-15.872-345.984-61.44c-12.672-45.824 214.4-227.328 214.4-227.328s-84.48-295.040-23.040-325.376c37.888-18.56 282.88 163.072 282.88 163.072s253.952-194.176 314.24-165.504c22.656 10.752-16.256 147.584-46.080 241.024-124.16-3.712-344.96-5.76-483.712 19.2 4.096 19.84 315.264 229.248 315.264 229.248l-329.472 46.080s201.216 46.848 473.344 0c6.144-12.416-301.056-224-297.088-241.024 110.464-20.352 234.624-33.92 317.952-41.728-13.952 43.52-24.96 75.008-24.96 75.008s279.424 214.016 258.048 242.176M861.44 171.52s-38.4 2.56-96.512 7.936l3.84-11.776c56.192 1.664 92.672 3.84 92.672 3.84z"  horiz-adv-x="1024" />

    
    <glyph glyph-name="bianji1" unicode="&#58971;" d="M829.866667 689.066667l-108.8 83.2c-46.933333 36.266667-115.2 25.6-151.466667-21.333334L251.733333 332.8c-2.133333-2.133333-2.133333-2.133333-2.133333-4.266667-4.266667-4.266667-8.533333-10.666667-8.533333-17.066666L194.133333 21.333333c-2.133333-10.666667 2.133333-23.466667 10.666667-29.866666 6.4-4.266667 12.8-6.4 19.2-6.4 4.266667 0 8.533333 0 12.8 2.133333l277.333333 115.2c4.266667 2.133333 8.533333 6.4 10.666667 8.533333 2.133333 2.133333 4.266667 4.266667 6.4 8.533334l317.866667 420.266666c38.4 46.933333 27.733333 115.2-19.2 149.333334zM264.533333 66.133333l29.866667 183.466667 145.066667-110.933333-174.933334-72.533334z m230.4 108.8l-181.333333 136.533334 251.733333 330.666666-2.133333 2.133334h4.266667l-2.133334-2.133334 181.333334-136.533333-251.733334-330.666667z m305.066667 403.2l-25.6-34.133333-179.2 136.533333V682.666667l25.6 34.133333c14.933333 19.2 42.666667 23.466667 61.866667 8.533333l108.8-83.2c21.333333-17.066667 23.466667-44.8 8.533333-64z"  horiz-adv-x="1024" />

    
    <glyph glyph-name="kefu" unicode="&#59188;" d="M609.524 792.478c-222.89 0-403.712-178.472-403.712-398.78 0-220.31 180.823-398.782 403.712-398.782 222.889 0 403.712 178.473 403.712 398.781 0 220.309-180.823 398.781-403.712 398.781v-48.762c196.1 0 354.95-156.785 354.95-350.019s-158.85-350.019-354.95-350.019-354.95 156.785-354.95 350.02c0 193.233 158.85 350.018 354.95 350.018v48.762zM786.578-20.34c166.45 69.217 278.408 231.055 278.408 414.035 0 248.026-203.847 449.219-455.457 449.219-251.619 0-455.457-201.188-455.457-449.22 0-55.397 10.152-109.367 29.718-159.975 4.855-12.56-1.39-26.677-13.949-31.533-12.56-4.855-26.677 1.39-31.532 13.949a490.396 490.396 0 0 0-3.042 8.078c-1.85-0.077-3.711-0.116-5.581-0.116C58.06 224.097 0 281.403 0 352.097c0 65.005 49.09 118.69 112.68 126.91C153.65 713.44 360.56 891.676 609.528 891.676c248.962 0 455.877-178.24 496.85-412.67 63.583-8.225 112.669-61.907 112.669-126.909 0-70.694-58.06-128-129.686-128-1.89 0-3.771 0.04-5.642 0.119-47.536-129.702-148.34-235.841-279.493-290.027-1.161-33.464-29.012-60.24-63.2-60.24-34.925 0-63.237 27.944-63.237 62.416 0 34.471 28.312 62.415 63.237 62.415 17.892 0 34.048-7.333 45.551-19.12zM609.528 284.595c-58.933 0-112.056 10.644-158.472 28.342-16.123 6.147-30.211 12.702-42.138 19.208-6.926 3.777-11.447 6.59-13.437 7.972-19.24 13.373-44.428-5.446-37.059-27.688 35.296-106.527 136.054-179.913 251.106-179.913 115.05 0 215.796 73.384 251.092 179.913 7.37 22.243-17.82 41.062-37.06 27.687-1.99-1.383-6.51-4.195-13.434-7.972-11.926-6.505-26.012-13.06-42.133-19.207-46.413-17.698-99.533-28.342-158.465-28.342z"  horiz-adv-x="1220" />

    
    <glyph glyph-name="delete" unicode="&#59157;" d="M944.356 679.348h-278.283v73.766c0 44.353-35.954 80.309-80.309 80.309h-147.528c-44.355 0-80.309-35.956-80.309-80.309v-73.766h-278.283c-9.426 0-17.067-7.64-17.067-17.067s7.64-17.067 17.067-17.067h95.953v-574.134c0-75.386 61.115-136.502 136.502-136.502h399.803c75.386 0 136.502 61.115 136.502 136.502v574.134h95.953c9.425 0.001 17.066 7.641 17.066 17.067 0 9.426-7.641 17.067-17.067 17.067-0 0-0.001-0-0.001-0zM392.061 753.114c0 25.462 20.713 46.175 46.175 46.175h147.528c25.462 0 46.175-20.713 46.175-46.175v-73.766h-239.878v73.766zM814.269 71.080c0-56.446-45.922-102.369-102.369-102.369h-399.803c-56.446 0-102.369 45.922-102.369 102.369v574.134h604.541v-574.134zM668.933 160.689c9.426 0.001 17.067 7.643 17.067 17.069 0 0 0 0 0 0v273.067c0 9.426-7.641 17.067-17.067 17.067s-17.067-7.641-17.067-17.067v-273.067c0.001-9.426 7.641-17.067 17.067-17.069zM355.067 160.689c9.426 0.001 17.067 7.643 17.067 17.069 0 0 0 0 0 0v273.067c0 9.426-7.641 17.067-17.067 17.067s-17.067-7.641-17.067-17.067v-273.067c0-9.426 7.641-17.068 17.067-17.069zM519.038 116.215c0 0 0 0 0 0 9.426 0 17.067 7.641 17.067 17.067 0 0 0 0 0 0v358.399c0 9.426-7.641 17.067-17.067 17.067-9.426 0-17.067-7.641-17.067-17.067l0-358.399c0.001-9.425 7.642-17.066 17.067-17.067z"  horiz-adv-x="1024" />

    
    <glyph glyph-name="icon-xialashuaxin-" unicode="&#58976;" d="M859.289263 250.05901a29.715918 29.715918 0 0 1-41.912313-0.204736l-275.895918-278.469738 0.087743 894.958042a29.68667 29.68667 0 0 1-59.314844 0v-891.331296l-276.01291 273.556083a29.715918 29.715918 0 0 1-41.941561-0.175488 29.715918 29.715918 0 0 1 0.204736-41.941561L491.613276-117.558482c0.497215-0.497215 1.14067-0.614207 1.637885-1.082174 0.175488-0.175488 0.175488-0.321727 0.263231-0.438719 5.791094-5.674102 13.307818-8.598897 20.824541-8.598898 7.662963 0 15.238182 2.983291 21.058525 8.745138l324.067293 327.050584a29.628174 29.628174 0 0 1-0.175488 41.941561z"  horiz-adv-x="1024" />

    
    <glyph glyph-name="shangcheng" unicode="&#58895;" d="M166.7-55.8c-45.8 0-83.1 37-83.1 82.6l-0.3 192.6c0 7.1 2.8 13.8 7.8 18.8s11.8 7.8 18.9 7.8c14.8 0 26.8-11.9 26.8-26.5l0.3-192.7c0-16.2 13.3-29.4 29.6-29.4l678.9 0.4c16.3 0 29.6 13.3 29.6 29.6l-0.1 196.1c0 14.7 12 26.6 26.8 26.6s26.8-11.9 26.8-26.6l0.1-196c0-45.6-37.2-82.7-83-82.8l-679.1-0.5z m43.9 353.9c-31.5 0-59.8 6-84 17.7v3.6l-3.1 0.1h-3.9C59 352.6 21.4 415.8 21.3 484.6c0 19.8 3.2 39.6 9.5 58.8l0.2 0.5 0.1 0.5c0.3 1.4 0.6 2.8 0.9 3.6l90.9 214 0.1 0.3c12.8 38.1 48.8 61.8 93.8 61.8h593.7c45.9-0.1 84.1-25.2 97.1-63.9l0.1-0.3L992.4 550c0.5-1.3 1-2.7 1.3-4.3l0.1-0.3c0.1-0.2 0.1-0.4 0.1-0.5l0.1-0.8 0.3-0.8c6.1-18.4 9.2-38.4 9.1-57.7 0-69-37.7-132.5-98.5-165.5-25.6-14-56-21.1-90.5-21.3-56.1 0-108.8 24.4-144.6 66.8l-7.1 8.5-7.1-8.5c-35.5-42.1-87.5-66.5-142.9-66.9-55.6 0.3-107.9 24.7-143.5 66.8l-7.1 8.4-7.1-8.4c-35.9-42.7-88.5-67.2-144.4-67.4z m-61.7 66.1c17.1-8.6 37.8-12.9 61.6-12.9 47 0.2 90 24.1 115 64.1l0.3 0.5 0.3 0.6c1.3 2.9 3.8 8.3 8.5 13.5l0.2 0.3c5.3 6.3 15.5 10.1 26.7 10.1 11.9 0 22.7-4.3 28.8-11.6l0.2-0.2c3.3-3.7 5.6-8.3 7.1-11.4l0.3-0.6 0.2-0.4c24.9-40.1 67.7-64.3 114.5-64.5 46.5 0.4 89.1 24.4 113.9 64.4l0.3 0.4 0.2 0.4c1.6 3.2 3.9 8.1 8 12.7l0.2 0.2c5.8 7.1 16.4 11.5 27.6 11.5 14.4 0 23-6.2 27.7-11.4 4.3-4.8 6.7-9.8 8.1-12.8l0.2-0.5 0.3-0.5c25-40.3 68.1-64.3 115.3-64.3 25.4 0.2 47.2 5.1 64.9 14.8 43.7 23.8 70.7 69.3 70.6 118.7 0 14.7-2.5 29.5-7.4 43.9-0.3 1-0.6 2.1-0.8 3.2l-0.2 0.8-84.1 208.5c-9.4 27.1-36.2 28.7-46.3 29.3H216.7c-22.7 0-37.5-9.4-44-27.8L83 531.7l-0.2-0.8c-0.2-0.9-0.4-1.6-0.6-2.3-4.9-14.4-7.4-29.2-7.4-44.1 0-50.1 27.6-95.8 71.9-119.3l2.1-1.1 0.1 0.1z m68.5 156.1c-14.8 0-26.8 11.9-26.8 26.6 0 14.7 12 26.6 26.8 26.6h577.4c14.8 0 26.8-11.9 26.8-26.6 0-14.7-12-26.6-26.8-26.6H217.4z"  horiz-adv-x="1024" />

    
    <glyph glyph-name="xiangji" unicode="&#58892;" d="M1094.464-128H185.6a185.152 185.152 0 0 0-131.2 54.528A186.496 186.496 0 0 0 0 58.176V563.52c0 74.944 44.8 142.592 113.6 171.648a16.64 16.64 0 0 0-3.84 10.88s22.784 58.496 33.472 58.496h122.88c9.6 0 35.2-42.176 42.624-54.848H384S458.688 896 493.76 896H896c36.672 0 91.392-146.304 91.392-146.304h107.072c102.4 0 185.472-83.392 185.472-186.176v-505.344A185.856 185.856 0 0 0 1094.464-128M201.152 566.848A72.896 72.896 0 0 1 274.304 640a73.408 73.408 0 0 1-73.152 73.088 73.152 73.152 0 0 1 0-146.24m493.696 128a347.392 347.392 0 1 1 0-694.848 347.392 347.392 0 0 1 0 694.848m0-585.152a237.696 237.696 0 1 0 0 475.456 237.696 237.696 0 0 0 0-475.456"  horiz-adv-x="1280" />

    
    <glyph glyph-name="yanjing" unicode="&#58890;" d="M515.2 672C208 672 22.4 358.4 22.4 358.4s214.4-304 492.8-304 492.8 304 492.8 304S822.4 672 515.2 672zM832 243.2c-102.4-86.4-211.2-140.8-320-140.8s-217.6 51.2-320 140.8c-35.2 32-70.4 64-99.2 99.2-6.4 6.4-9.6 12.8-16 19.2 3.2 6.4 9.6 12.8 12.8 19.2 25.6 35.2 57.6 70.4 92.8 102.4 99.2 89.6 208 144 329.6 144s230.4-54.4 329.6-144c35.2-32 64-67.2 92.8-102.4 3.2-6.4 9.6-12.8 12.8-19.2-3.2-6.4-9.6-12.8-16-19.2-28.8-32-60.8-67.2-99.2-99.2zM512 550.4c-96 0-169.6-76.8-169.6-169.6 0-96 76.8-169.6 169.6-169.6 96 0 169.6 76.8 169.6 169.6S604.8 550.4 512 550.4z m0-294.4c-67.2 0-121.6 54.4-121.6 121.6 0 67.2 54.4 121.6 121.6 121.6 67.2 0 121.6-54.4 121.6-121.6 0-64-54.4-121.6-121.6-121.6z"  horiz-adv-x="1024" />

    
    <glyph glyph-name="iconfont-baoming" unicode="&#58940;" d="M779.922101 170.781737H628.454141c-9.673697 0-17.502384-7.833859-17.502383-17.504969 0-9.673697 7.828687-17.506263 17.502383-17.506263h151.466667c9.673697 0 17.50497 7.832566 17.50497 17.506263-0.090505 9.671111-7.82998 17.50497-17.503677 17.504969z m0-81.539878H628.454141c-9.673697 0-17.502384-7.82998-17.502383-17.503677s7.828687-17.50497 17.502383-17.50497h151.466667c9.673697 0 17.50497 7.831273 17.50497 17.50497s-7.82998 17.503677-17.503677 17.503677z m40.722101 174.686383h-84.209778c-40.62901 56.568242-104.202343 104.846222-182.699959 126.957899 55.098182 42.749414 92.042343 122.167596 92.042343 215.221011 0 139.857455-83.38101 193.570909-186.29301 193.570909s-186.291717-53.805253-186.291717-193.570909c0-93.053414 36.945455-172.564687 92.04105-215.221011C225.744162 351.546182 133.427717 229.563475 133.427717 125.636525c0-125.853737 135.434343-129.630384 326.149172-129.630384 23.310222 0 45.882182 0.091798 67.348687 0.368485 12.069495-21.09802 34.733253-35.379717 60.715959-35.379717h233.002667c38.60299 0 69.929374 31.326384 69.929374 69.929374V193.998869c0 38.694788-31.326384 69.929374-69.929374 69.929373zM459.576889 124.161293s-46.619152 15.846141-46.619152 35.379717c0 19.529697 20.822626 174.312727 46.619152 174.312727 25.704727 0 46.619152-154.78303 46.619151-174.312727 0-19.533576-46.619152-35.379717-46.619151-35.379717z m396.077252-81.536c0-25.704727-20.822626-46.619152-46.619151-46.619152H599.343838c-25.707313 0-46.621737 20.821333-46.621737 46.619152v139.765656c0 25.704727 20.822626 46.619152 46.621737 46.619152h209.692445c25.704727 0 46.619152-20.821333 46.619151-46.619152v-139.765656h-0.001293z"  horiz-adv-x="1024" />

    
    <glyph glyph-name="fanhui" unicode="&#58897;" d="M693.3504-22.903467a34.030933 34.030933 0 0 0-24.132267 10.001067L279.4496 376.9344a34.0992 34.0992 0 0 0 0 48.264533l389.802667 389.802667a34.0992 34.0992 0 1 0 48.264533-48.264533L351.8464 401.066667l365.6704-365.704534a34.0992 34.0992 0 0 0-24.1664-58.2656z"  horiz-adv-x="1024" />

    
    <glyph glyph-name="fanhui1" unicode="&#58896;" d="M480 832c-265.088 0-480-214.912-480-480s214.912-480 480-480c265.088 0 480 214.912 480 480 0 265.088-214.912 480-480 480zM565.12 182.976c12.48-12.48 12.48-32.768 0-45.248-6.272-6.272-14.464-9.344-22.656-9.344s-16.384 3.136-22.656 9.344l-191.488 191.616c-12.48 12.48-12.48 32.768 0 45.248l192.768 192.832c12.48 12.48 32.768 12.48 45.248 0s12.48-32.768 0-45.248l-170.112-170.24 168.896-168.96z"  horiz-adv-x="1024" />

    
    <glyph glyph-name="zanting11" unicode="&#58905;" d="M857.739 507.077l-557.304 350.673c-29.014 16.55-58.319 24.951-86.989 24.951-78.369 0-133.183-61.884-133.183-150.469v-699.304c0-88.584 54.817-150.446 133.183-150.446 28.58 0 58.223 8.604 89.321 26.333l553.624 348.246c53.461 30.556 82.901 75.096 82.901 125.54-0.156 49.49-29.86 94.826-81.553 124.475zM846.61 311.339l-566.27-356.221c-20.744-11.813-70.771-28.316-101.36-11.979-44.673 23.857-50.856 58.845-50.856 101.151v691.722c0 42.301 18.696 73.578 42.977 87.826 28.039 16.454 69.183 10.199 87.687-0.309l590.072-371.259c18.975-10.803 40.509-34.23 40.612-69.792 0.002-35.434-22.145-59.257-42.863-71.139zM527.448 232.020c-7.399 11.872-23.359 15.598-35.549 8.286l-7.879-4.88c-6.33-3.954-10.757-10.448-11.865-18.020-1.166-4.932 0.061-11.832 3.716-17.532 4.766-7.582 12.984-12.098 21.998-12.098 4.721 0 9.421 1.337 13.711 3.924l7.696 4.792c6.328 3.956 10.755 10.447 11.871 18.016 1.158 4.913-0.044 11.813-3.7 17.511zM470.739 196.723c-7.512 12.055-23.564 15.708-35.686 8.217l-160.594-99.84c-6.327-3.957-10.754-10.448-11.869-18.017-0.063 0.111-0.294-1.837-0.294-3.839 0-5.102 1.497-9.854 4.076-13.841 4.728-7.439 12.946-11.955 21.937-11.955 4.743 0 9.443 1.339 13.691 3.926l160.614 99.82c6.319 3.975 10.738 10.476 11.85 18.051 1.157 4.9-0.068 11.8-3.725 17.479z"  horiz-adv-x="1024" />

    
    <glyph glyph-name="right" unicode="&#59182;" d="M647.763 405.018c12.499 12.499 32.755 12.499 45.253 0v0c12.499-12.499 12.499-32.755 0-45.253l-316.781-316.781c-12.499-12.499-32.755-12.499-45.253 0v0c-12.499 12.499-12.499 32.755 0 45.253l316.781 316.781zM330.982 679.763c-12.499 12.499-12.499 32.755 0 45.253v0c12.499 12.499 32.755 12.499 45.253 0l316.781-316.781c12.499-12.499 12.499-32.755 0-45.253v0c-12.499-12.499-32.755-12.499-45.253 0l-316.781 316.781z"  horiz-adv-x="1024" />

    
    <glyph glyph-name="chenggong" unicode="&#58967;" d="M512-120.888889C233.244444-120.888889 7.111111 105.244444 7.111111 384S233.244444 888.888889 512 888.888889 1016.888889 662.755556 1016.888889 384 790.755556-120.888889 512-120.888889z m0 995.555556C241.777778 874.666667 21.333333 654.222222 21.333333 384S241.777778-106.666667 512-106.666667 1002.666667 113.777778 1002.666667 384 782.222222 874.666667 512 874.666667zM816.355556 550.4l-22.755556 22.755556c-1.422222 1.422222-5.688889 2.844444-7.111111 0L448 294.4c-4.266667-4.266667-11.377778-4.266667-17.066667 0L294.4 398.222222c-2.844444 1.422222-5.688889 1.422222-7.111111-1.422222l-24.177778-32.711111c-1.422222-2.844444-1.422222-5.688889 0-8.533333l167.822222-173.511112c4.266667-4.266667 9.955556-4.266667 14.222223 0L816.355556 543.288889c1.422222 1.422222 1.422222 4.266667 0 7.111111z"  horiz-adv-x="1024" />

    
    <glyph glyph-name="Group" unicode="&#58933;" d="M462.139077-1.969231h-401.723077v78.769231h322.953846V691.2h-322.953846v78.769231h401.723077zM989.892923-1.969231h-401.723077V769.969231h401.723077v-78.769231h-322.953846v-614.4h322.953846zM564.539077-112.246154h-78.769231v23.630769h78.769231v-23.630769z m0 102.4h-78.769231v78.769231h78.769231v-78.769231z m0 157.538462h-78.769231v78.76923h78.769231v-78.76923z m0 157.538461h-78.769231v78.769231h78.769231v-78.769231z m0 157.538462h-78.769231v78.769231h78.769231v-78.769231z m0 157.538461h-78.769231v78.769231h78.769231v-78.769231z m0 157.538462h-78.769231v78.769231h78.769231v-78.769231z"  horiz-adv-x="1024" />

    
    <glyph glyph-name="fangda" unicode="&#58881;" d="M548.9 423.9c13.6-13.6 35.9-13.6 49.6 0l290.4 289v-220.1c0-19.2 15.8-34.9 35.1-34.9s35.1 15.7 35.1 34.9V796.6c0 9.7-4.1 18.6-10.6 24.9-6.3 6.5-15.3 10.5-25 10.5H617.9c-19.3 0-35.1-15.7-35.1-34.9s15.8-34.9 35.1-34.9H839l-290.2-289c-13.6-13.6-13.6-35.7 0.1-49.3zM76.6-49.5c6.3-6.5 15.3-10.5 25-10.5h305.5c19.3 0 35.1 15.7 35.1 34.9s-15.8 34.9-35.1 34.9H185.9l290.4 288.6c13.6 13.6 13.6 35.7 0 49.3-13.6 13.6-35.9 13.6-49.6 0L136.2 58.9V279.2c0 19.2-15.8 34.9-35.1 34.9S66 298.4 66 279.2v-303.8c0.2-9.7 4.1-18.6 10.6-24.9z"  horiz-adv-x="1024" />

    
    <glyph glyph-name="lianxiren1" unicode="&#59076;" d="M525.2 333.2c71.1 35.6 120.1 110.3 120.1 196.9 0 121-95.5 219.1-213.3 219.1-117.8 0-213.3-98.1-213.3-219.1 0-86.6 49.1-161.3 120.1-196.9-123.7-38.6-215.3-152.1-225.4-289.1-0.9-2.2-1.4-4.5-1.4-7 0-10.1 8-18.3 17.8-18.3s17.8 8.2 17.8 18.3h0.9C157.7 189.8 280.9 311 432 311s274.3-121.1 283.6-273.9h0.9c0-10.1 8-18.3 17.8-18.3s17.8 8.2 17.8 18.3c0 2.5-0.5 4.8-1.4 7-10.2 137-101.8 250.5-225.5 289.1z m-271 196.9c0 100.8 79.6 182.6 177.8 182.6 98.1 0 177.7-81.8 177.7-182.6 0-100.9-79.6-182.7-177.7-182.7-98.2 0-177.8 81.8-177.8 182.7z m656.5-486c-10.2 137-101.7 250.5-225.4 289.1 71 35.6 120.1 110.3 120.1 196.9 0 121-95.5 219.1-213.3 219.1-9.8 0-19.4-0.9-28.8-2.2 15.7-10.1 30.5-21.8 43.6-35.1 91.2-7.7 163-86.2 163-181.8 0-95.4-71.2-173.5-162.1-181.7 1.2-3.1 2-6.5 2-10.1 0-1.2-0.5-2.3-0.7-3.4 15.7-9.4 30.9-19.6 45.1-31.3C775.6 275.8 867.7 168.2 875.5 37h0.9c0-10.1 8-18.3 17.8-18.3 9.9 0 17.8 8.2 17.8 18.3 0 2.6-0.5 4.9-1.3 7.1z"  horiz-adv-x="1024" />

    
    <glyph glyph-name="gouwuche1" unicode="&#59413;" d="M512 896a512 512 0 0 1 0-1024c122.112 0 234.24 42.944 322.24 114.368l56.896 54.528A509.248 509.248 0 0 1 1024 384a512 512 0 0 1-512 512zM438.336 16.768a53.696 53.696 0 1 0-0.192 107.328 53.696 53.696 0 0 0 0.192-107.328z m232.896 0a53.632 53.632 0 1 0 0 107.2 53.696 53.696 0 0 0 0-107.2z m161.216 500.16L767.616 314.88c-5.184-19.072-23.552-35.264-42.624-30.144H402.496l13.44-53.632h291.136a35.84 35.84 0 1 0 0-71.488H402.496a25.28 25.28 0 0 0-11.584 0h-6.4a35.712 35.712 0 0 0-35.776 35.712L267.2 512.448a35.84 35.84 0 0 0-7.424 28.8l-16.64 65.024H205.44a35.776 35.776 0 1 0 0 71.424h53.76a26.88 26.88 0 0 0 11.52 0h6.4c19.776 0 35.84-16 35.84-35.712l17.92-71.488h451.456a27.52 27.52 0 0 0 14.4 0c19.776 0 35.776-16 35.776-35.712 0-1.408-0.192-2.688-0.384-4.032 1.152-4.864 1.472-9.6 0.32-13.824z"  horiz-adv-x="1024" />

    
    <glyph glyph-name="zanting1" unicode="&#59103;" d="M512 896C230.4 896 0 665.6 0 384s230.4-512 512-512 512 230.4 512 512-230.4 512-512 512z m0-985.6C249.6-89.6 38.4 121.6 38.4 384 38.4 646.4 249.6 857.6 512 857.6c262.4 0 473.6-211.2 473.6-473.6 0-262.4-211.2-473.6-473.6-473.6zM390.4 620.8c-12.8 0-19.2-6.4-19.2-19.2v-435.2c0-12.8 6.4-19.2 19.2-19.2 12.8 0 19.2 6.4 19.2 19.2V601.6c0 12.8-12.8 19.2-19.2 19.2z m243.2 0c-12.8 0-19.2-6.4-19.2-19.2v-435.2c0-12.8 6.4-19.2 19.2-19.2 12.8 0 19.2 6.4 19.2 19.2V601.6c0 12.8-6.4 19.2-19.2 19.2z"  horiz-adv-x="1024" />

    
    <glyph glyph-name="zuanshi-copy" unicode="&#58882;" d="M511.245-43.232c-20.508 0-40.076 10.345-53.635 28.423l-374.545 499.299c-24.44 32.578-25.654 84.488-2.77 118.19l107.596 155.6c20.468 30.122 65.899 52.955 105.57 52.955h435.325c39.683 0 85.14-22.806 105.726-53.059l107.322-156.307c23.225-34.092 22.050-84.566-2.638-117.509l-374.578-499.323c-13.454-17.974-32.918-28.268-53.373-28.268zM293.461 757.729c-21.971 0-50.682-13.872-61.445-29.704l-107.596-155.6c-9.993-14.735-9.365-41.434 1.437-55.829l374.572-499.299c6.687-8.933 14.708-9.065 21.395-0.182l374.578 499.35c10.843 14.473 11.443 40.258 1.28 55.201l-107.346 156.332c-10.816 15.884-39.527 29.73-61.55 29.73h-435.326zM935.8 530.339h-815.925c-7.38 0-13.376 5.983-13.376 13.376s5.996 13.376 13.376 13.376h815.925c7.393 0 13.375-5.983 13.375-13.376s-5.981-13.376-13.375-13.376zM489.927 535.433c-3.213 0-6.426 1.149-9.013 3.501l-247.148 225.613c-5.447 4.964-5.839 13.429-0.862 18.888s13.441 5.852 18.901 0.863l247.16-225.614c5.46-4.99 5.826-13.454 0.863-18.888-2.64-2.899-6.271-4.362-9.902-4.362zM523.68 535.433c-3.631 0-7.236 1.463-9.874 4.362-4.991 5.434-4.598 13.899 0.863 18.888l131.433 119.965c5.459 4.99 13.923 4.598 18.888-0.862 4.989-5.459 4.597-13.924-0.863-18.888l-131.433-119.965c-2.56-2.352-5.8-3.501-9.014-3.501zM689.494 686.774c-3.632 0-7.237 1.463-9.875 4.337-4.99 5.46-4.598 13.924 0.864 18.914l9.3 8.491c5.46 4.963 13.924 4.598 18.888-0.836 4.99-5.46 4.598-13.924-0.836-18.914l-9.325-8.49c-2.562-2.352-5.776-3.502-9.015-3.502zM730.981 724.656c-3.632 0-7.237 1.462-9.875 4.362-4.99 5.434-4.598 13.899 0.862 18.888l39.841 36.392c5.486 4.99 13.924 4.598 18.915-0.863 4.963-5.46 4.597-13.924-0.863-18.888l-39.867-36.391c-2.56-2.352-5.8-3.501-9.013-3.501zM315.988 490.080c-5.349 0-10.391 3.213-12.455 8.49l-16.080 40.258c-2.69 6.872 0.705 14.63 7.577 17.347 6.909 2.69 14.656-0.732 17.328-7.602l16.093-40.258c2.69-6.872-0.705-14.63-7.577-17.32-1.621-0.627-3.266-0.915-4.885-0.915zM333.701 444.832c-5.356 0-10.399 3.213-12.463 8.49l-4.702 11.966c-2.691 6.872 0.705 14.629 7.576 17.32 6.897 2.717 14.657-0.705 17.347-7.55l4.677-11.964c2.717-6.897-0.679-14.656-7.577-17.347-1.592-0.628-3.239-0.915-4.858-0.915zM511.114-8.511c-5.329 0-10.398 3.212-12.462 8.49l-159.387 407.258c-2.69 6.87 0.705 14.629 7.576 17.32 6.87 2.717 14.656-0.705 17.347-7.577l159.388-407.259c2.69-6.869-0.705-14.629-7.576-17.322-1.622-0.625-3.266-0.912-4.886-0.912zM511.114-8.511c-1.594 0-3.24 0.287-4.833 0.887-6.872 2.664-10.294 10.423-7.629 17.32l206.595 532.973c2.665 6.896 10.425 10.319 17.295 7.654 6.896-2.665 10.319-10.424 7.653-17.32l-206.594-532.973c-2.064-5.304-7.131-8.542-12.487-8.542z"  horiz-adv-x="1024" />

    
    <glyph glyph-name="shanchu" unicode="&#58975;" d="M783.903076 16.496021l-0.121629-0.851408v-0.851407c0-18.366077-18.609336-33.326523-41.59734-33.326523H284.370115c-22.988003 0-41.597339 14.960447-41.597339 33.326523v1.702815L201.175437 647.145742h623.473571l-40.745932-630.649721M371.213683 761.234351c0 17.757928 18.001188 32.110227 40.016154 32.110227h200.2024c22.136596 0 40.016154-14.473928 40.016154-32.110227l0.608148-37.94845H371.821832v32.110227l-0.608149 5.838223m339.833235-44.75971V760.991092c0 49.138377-39.651265 88.911272-88.546383 88.911272H401.377836c-48.895118 0-88.546383-39.772895-88.546383-88.911272v-44.516451H91.587124v-73.221048h45.611118l44.273192-638.555648c0-49.138377 39.651265-88.911272 88.546383-88.911272h486.761848c48.895118 0 88.546383 39.772895 88.546383 88.911272l43.543414 638.555648h43.543414v73.221048h-221.365958M740.846181 567.599952l-59.598527 2.067704-60.206675-527.38615 59.598527-2.067704L740.846181 567.599952zM398.945243 43.376173l-61.058083 526.291483-59.476897-2.067704 61.058082-526.291483 59.476898 2.067704zM480.801995 569.667656h62.882528v-527.38615H480.801995V569.667656"  horiz-adv-x="1024" />

    
    <glyph glyph-name="iconfontquxiao" unicode="&#58883;" d="M754.782 683.404l-242.782-242.772-242.782 242.772c-13.081 13.081-34.29 13.081-47.369 0-13.081-13.081-13.081-34.288 0-47.367l242.782-242.771-242.782-242.773c-13.081-13.081-13.081-34.288 0-47.367 13.081-13.081 34.29-13.081 47.369 0l242.782 242.771 242.782-242.771c13.081-13.081 34.289-13.081 47.37 0s13.081 34.288 0 47.367l-242.782 242.772 242.782 242.771c13.081 13.081 13.081 34.288 0 47.367-13.082 13.080-34.29 13.080-47.37 0.001z"  horiz-adv-x="1024" />

    
    <glyph glyph-name="tupian" unicode="&#58891;" d="M914.286 786.286H109.714c-40.393 0-73.143-32.75-73.143-73.143v-658.286c0-40.393 32.75-73.143 73.143-73.143h804.572c40.393 0 73.143 32.75 73.143 73.143V713.143c0 40.393-32.75 73.143-73.143 73.143z m0-731.429H109.714V713.143h804.572v-658.286zM292.571 457.143c40.394 0 73.143 32.75 73.143 73.143 0 40.411-32.75 73.143-73.143 73.143-40.356 0-73.142-32.732-73.142-73.143 0-40.393 32.786-73.143 73.142-73.143zM658.286 493.714L441.536 194.84 329.143 347.429l-182.857-256h731.428z"  horiz-adv-x="1024" />

    
    <glyph glyph-name="loudong" unicode="&#58979;" d="M960 19.2v448c0 70.4-57.6 128-128 128h-96v32c0 70.4-57.6 128-128 128h-256c-70.4 0-128-57.6-128-128v-608h-96v-64h896v64h-64z m-288 0h-384v576c0 51.2 44.8 96 96 96h192c51.2 0 96-44.8 96-96v-576z m224 0h-160v512h64c51.2 0 96-44.8 96-96v-416z m-32 384h-96v-64h96v64z m0-160h-96v-64h96v64z m-416 352h-96v-64h96v64z m0-192h-96v-64h96v64z m0-160h-96v-64h96v64z m160 0h-96v-64h96v64z m0 160h-96v-64h96v64z m0 192h-96v-64h96v64z"  horiz-adv-x="1024" />

    
    <glyph glyph-name="xiaoxi" unicode="&#58936;" d="M512 36.864c-29.696 0-58.368 2.56-86.528 7.168l-202.24-122.88v204.288c-105.472 74.24-173.056 187.392-173.056 314.88 0 223.232 206.848 403.968 461.824 403.968s461.824-180.736 461.824-403.968c0-222.72-206.848-403.456-461.824-403.456z m0 750.08c-223.232 0-403.968-155.136-403.968-346.112 0-117.248 68.096-220.672 172.544-283.648l-2.048-133.632 135.68 81.408c31.232-6.656 64-10.752 97.28-10.752 223.232 0 403.968 155.136 403.968 346.112 0.512 191.488-180.224 346.624-403.456 346.624z m230.912-403.968c-31.744 0-57.856 25.6-57.856 57.856 0 31.744 25.6 57.856 57.856 57.856 31.744 0 57.856-25.6 57.856-57.856s-26.112-57.856-57.856-57.856z m-230.912 0c-31.744 0-57.856 25.6-57.856 57.856 0 31.744 26.112 57.856 57.856 57.856 31.744 0 57.856-25.6 57.856-57.856s-26.112-57.856-57.856-57.856z m-230.912 0c-31.744 0-57.856 25.6-57.856 57.856 0 31.744 26.112 57.856 57.856 57.856 31.744 0 57.856-25.6 57.856-57.856s-26.112-57.856-57.856-57.856z"  horiz-adv-x="1024" />

    
    <glyph glyph-name="bi" unicode="&#58885;" d="M1066.295652-85.704348c0-17.808696-13.356522-31.165217-31.165217-31.165217h-1001.739131c-17.808696 0-31.165217 13.356522-31.165217 31.165217 0 17.808696 13.356522 31.165217 31.165217 31.165218h1001.739131c17.808696 0 31.165217-13.356522 31.165217-31.165218z m-948.313043 129.113044l66.782608 244.869565 578.782609 578.782609c26.713043 26.713043 62.330435 26.713043 89.043478 0l131.339131-131.339131c26.713043-26.713043 26.713043-62.330435 0-89.043478l-578.782609-578.782609-244.869565-66.782609c-33.391304-11.130435-51.2 6.678261-42.295652 42.295653z m578.782608 667.826087l131.339131-131.339131 89.043478 89.043478c22.26087 22.26087 22.26087 22.26087 0 44.52174l-89.043478 89.043478c-20.034783 22.26087-22.26087 22.26087-44.521739 0l-86.817392-91.269565z m-418.504347-420.730435l131.33913-131.339131 376.208696 376.208696-131.339131 131.33913-376.208695-376.208695z m-93.495653-224.834783l182.539131 48.973913-131.339131 131.339131-51.2-180.313044z"  horiz-adv-x="1068" />

    
    <glyph glyph-name="time" unicode="&#58968;" d="M512 831.2c-247 0-447.2-200.2-447.2-447.2s200.2-447.2 447.2-447.2 447.2 200.2 447.2 447.2-200.2 447.2-447.2 447.2zM706.6 396c0-22-18-40-40-40h-143.8c-22 0-40 18-40 40v203.7c0 22 18 40 40 40s40-18 40-40v-163.7h103.8c22 0 40-18 40-40z"  horiz-adv-x="1024" />

    
    <glyph glyph-name="shoucang" unicode="&#58972;" d="M509.607 752.886c9.083 0 17.328-4.84 20.996-12.332l97.262-197.442c5.614-11.404 16.664-19.36 29.439-21.216l223.739-32.553c8.42-1.215 15.604-6.85 18.233-14.254 2.52-7.184 0.595-15.062-5.085-20.587L730.253 294.388c-8.95-8.751-12.995-21.171-10.916-33.37l38.011-222.06c1.326-7.738-2.165-15.427-8.905-19.978-4.089-2.742-8.862-4.156-13.813-4.156-4.023 0-8 0.972-11.425 2.74L528.149 120.33a40.193 40.193 0 0 1-18.542 4.552c-6.365 0-12.728-1.547-18.519-4.552L296.255 17.65c-3.56-1.855-7.602-2.828-11.669-2.828-4.862 0-9.723 1.46-13.546 4.022-6.962 4.685-10.476 12.42-9.128 20.156l38.011 222.016c2.079 12.199-1.988 24.62-10.939 33.37l-163.96 160.17c-5.635 5.492-7.558 13.348-5.061 20.454 2.63 7.481 9.812 13.117 18.298 14.332l223.675 32.553c12.84 1.857 23.867 9.813 29.481 21.216l97.195 197.397c3.713 7.525 11.979 12.377 20.995 12.377m0 38.21c-24.044 0-45.923-13.226-56.177-33.957l-97.24-197.441-223.674-32.543c-22.984-3.304-42.101-18.718-49.482-39.659-7.381-21.048-1.813-44.232 14.431-60.033l163.917-160.126L223.37 45.32c-3.868-22.408 6.032-44.82 25.459-57.946 10.696-7.116 23.204-10.785 35.757-10.785a65.535 65.535 0 0 1 30.056 7.337l194.988 102.72 195.032-102.719a65.268 65.268 0 0 1 29.99-7.337c12.576 0 25.083 3.669 35.78 10.785 19.426 13.127 29.305 35.538 25.46 57.946L757.88 267.338l163.937 160.126c16.222 15.812 21.811 38.985 14.408 60.033-7.402 20.941-26.519 36.354-49.503 39.66l-223.674 32.54-97.241 197.442c-10.187 20.73-32.111 33.957-56.2 33.957z"  horiz-adv-x="1024" />

    
    <glyph glyph-name="pengyouquan" unicode="&#59005;" d="M632.832 676.352zM512 851.968c-18.432 0-36.352 0-51.2-3.584-44.032-3.584-83.968-14.848-120.832-29.184 0 0 314.368-310.784 321.536-321.536V826.368c-10.752 3.584-18.432 7.168-29.184 7.168-36.352 11.264-76.288 18.432-120.32 18.432zM800.768 508.416zM841.216 716.8c-10.752 10.752-25.6 25.6-40.448 36.352-32.768 25.6-69.632 47.616-105.984 61.952 0 0 3.584-442.368 0-456.704l233.984 233.984c-3.584 7.168-10.752 18.432-14.848 25.6-17.92 36.352-43.52 69.632-72.704 98.816zM804.352 263.168zM943.104 556.032s-310.784-314.368-321.536-321.536h332.8c3.584 10.752 7.168 18.432 7.168 29.184 10.752 40.448 14.848 80.384 14.848 120.832 0 18.432 0 36.352-3.584 51.2-4.096 43.52-11.264 83.456-29.696 120.32zM632.832 91.648zM482.816 197.632l233.984-233.984c7.168 3.584 18.432 7.168 25.6 14.848 32.768 18.432 66.048 44.032 95.232 73.216 10.752 10.752 25.6 25.6 36.352 40.448 25.6 32.768 47.616 69.632 61.952 105.984 3.584-0.512-438.784-0.512-453.12-0.512zM391.168 91.648zM361.984 274.432v-332.8c10.752-3.584 18.432-7.168 29.184-7.168 40.448-10.752 80.384-14.848 120.832-14.848 18.432 0 36.352 0 51.2 3.584 44.032 3.584 83.968 14.848 120.832 29.184 0-3.584-314.368 307.2-322.048 322.048zM223.232 263.168zM329.216 409.6l-233.984-233.984c3.584-7.168 10.752-18.432 14.848-25.6 18.432-32.768 44.032-66.048 73.216-95.232 10.752-10.752 25.6-25.6 40.448-36.352 32.768-25.6 69.632-47.616 105.984-61.952-0.512-3.584-4.096 442.368-0.512 453.12zM223.232 504.832zM62.464 504.832C51.2 464.384 47.616 424.448 47.616 384c0-18.432 0-36.352 3.584-51.2 3.584-44.032 14.848-83.968 29.184-120.832 0 0 310.784 314.368 321.536 321.536h-332.8c-3.072-10.752-3.072-17.92-6.656-28.672zM391.168 672.768zM278.016 785.92C245.248 768 212.48 742.4 182.784 713.216c-14.848-10.752-25.6-25.6-36.352-40.448-25.6-32.768-47.616-69.632-61.952-105.984 0 0 442.368 3.584 456.704 0L307.2 800.768c-10.752-3.584-22.016-7.168-29.184-14.848zM391.168 672.768z"  horiz-adv-x="1024" />

    
    <glyph glyph-name="gouwuche" unicode="&#58898;" d="M337.4 78.1c-34.1 0-61.7-27.6-61.7-61.7s27.6-61.7 61.7-61.7 61.7 27.6 61.7 61.7-27.6 61.7-61.7 61.7m431.7 0c-34.1 0-61.7-27.6-61.7-61.7s27.6-61.7 61.7-61.7 61.7 27.6 61.7 61.7-27.6 61.7-61.7 61.7m61.2 30.9H329.4c-44.4 0-83.5 35.2-88.9 80l-52.3 368.2-29.8 172.1c-1.9 15-15.5 27.3-28.9 27.3H90.2c-17 0-30.8 13.8-30.8 30.8s13.8 30.8 30.8 30.8h39.3c45 0 84.5-35.2 89.9-80l29.7-171.4L301.7 197c1.7-14.3 14.7-26.4 27.8-26.4h500.9c17.1 0 30.8-13.8 30.8-30.8-0.1-17.1-13.8-30.8-30.9-30.8M368 232.3c-16 0-29.5 12.3-30.7 28.6-1.3 17 11.5 31.8 28.5 33l418.3 30.8c15.4 0.1 28.3 12.1 30 25.9l48.6 277.9c1.2 10.4-1.6 21.7-7.8 28.7-4 4.5-9 6.8-14.8 6.8h-534c-17 0-30.8 13.8-30.8 30.8s13.8 30.8 30.8 30.8H840c23.6 0 45.2-9.8 61-27.6 18-20.3 26.3-49 22.7-78.7L875 341.5c-5.2-43.2-44.3-78.4-88.7-78.4l-416-30.7c-0.8-0.1-1.6-0.1-2.3-0.1m0 0z"  horiz-adv-x="1024" />

    
    <glyph glyph-name="qianbao" unicode="&#58894;" d="M907.5 488.2zM853.3 358.1z m-26.9 0c0-14.8 12-26.9 26.9-26.9 14.8 0 26.9 12 26.9 26.9 0 14.8-12 26.9-26.9 26.9-14.8 0-26.9-12-26.9-26.9M826.4 541c0-14.8 12-26.9 26.9-26.9 14.8 0 26.9 12 26.9 26.9V659.3c0 36.2-29.6 65.8-65.8 65.8H141.8c-36.2 0-65.8-29.6-65.8-65.8v-601.5c0-36.2 29.6-65.8 65.8-65.8h672.5c36.2 0 65.8 29.6 65.8 65.8V176v0.9c0 14.8-12 26.9-26.9 26.9-14.8 0-26.9-12-26.9-26.9v-0.9h-0.1v-91.2c0-23-18.8-41.9-41.9-41.9H171.7c-23 0-41.9 18.8-41.9 41.9V632.3c0 23 18.8 41.9 41.9 41.9h612.8c23 0 41.9-18.8 41.9-41.9V541zM912.8 471.9H589c-35.1 0-63.7-28.7-63.7-63.7v-100.4c0-35.1 28.7-63.7 63.7-63.7h323.8c35.1 0 63.7 28.7 63.7 63.7V408.1c0 35.1-28.7 63.8-63.7 63.8z m12.5-149.2c0-13.6-11.1-24.7-24.7-24.7H602.5c-13.6 0-24.7 11.1-24.7 24.7v65.6c0 16.2 13.3 29.5 29.5 29.5h293.4c13.6 0 24.7-11.1 24.7-24.7v-70.4h-0.1z"  horiz-adv-x="1024" />

    
    <glyph glyph-name="weixin" unicode="&#58880;" d="M671.2 528.352c10.336 0 20.48-0.768 30.656-1.952-27.456 128-164.224 223.008-320.384 223.008-174.528 0-317.472-118.912-317.472-270.016 0-87.2 47.552-158.752 127.040-214.368l-31.744-95.488 111.008 55.616c39.68-7.776 71.52-15.872 111.168-15.872 10.016 0 19.872 0.48 29.6 1.216-6.144 21.216-9.824 43.392-9.824 66.592 0.096 138.656 119.2 251.264 269.952 251.264v0zM500.512 614.4c24 0 39.744-15.744 39.744-39.648 0-23.744-15.744-39.68-39.744-39.68-23.712 0-47.584 15.936-47.584 39.68 0 23.936 23.84 39.648 47.584 39.648v0zM278.336 535.072c-23.84 0-47.84 15.936-47.84 39.68 0 23.904 24 39.648 47.84 39.648 23.84 0 39.616-15.712 39.616-39.648 0.032-23.744-15.776-39.68-39.616-39.68v0zM961.056 280.864c0 126.944-127.040 230.368-269.728 230.368-151.072 0-270.016-103.488-270.016-230.368 0-127.296 118.976-230.368 270.016-230.368 31.616 0 63.52 7.872 95.264 15.872l87.072-47.776-23.872 79.36c63.712 47.936 111.264 111.296 111.264 182.912v0zM603.744 320.64c-15.776 0-31.744 15.712-31.744 31.744 0 15.776 15.968 31.712 31.744 31.712 24.096 0 39.744-15.936 39.744-31.712 0-16.032-15.616-31.744-39.744-31.744v0zM778.368 320.64c-15.648 0-31.552 15.712-31.552 31.744 0 15.776 15.872 31.712 31.552 31.712 23.904 0 39.744-15.936 39.744-31.712-0-16.032-15.84-31.744-39.744-31.744v0zM778.368 320.64z"  horiz-adv-x="1024" />

    
    <glyph glyph-name="lianxiren" unicode="&#58889;" d="M660.827 407.646c69.446 42.632 114.996 112.629 114.996 191.78 0 129.694-121.862 235.171-271.581 235.171s-271.582-105.477-271.582-235.171c0-81.431 48.147-153.327 121.047-195.545-135.17-52.479-229.681-169.737-229.681-305.928 0-117.466 209.002-159.167 387.974-159.167 178.973 0 387.975 41.701 387.975 159.167 0 139.403-98.896 259.148-239.148 309.694zM310.253 599.425c0 91.553 87.023 166.074 193.986 166.074s193.986-74.522 193.986-166.074c0-91.52-87.023-166.040-193.986-166.040s-193.986 74.52-193.986 166.040zM511.999 7.851c-185.646 0-310.38 46.605-310.38 90.070 0 146.9 139.245 266.369 310.38 266.369 171.135 0 310.381-119.469 310.381-266.369 0-43.465-124.733-90.070-310.381-90.070z"  horiz-adv-x="1024" />

    
    <glyph glyph-name="shoucang1" unicode="&#58973;" d="M752-43.2c-9.6 0-20.8 3.2-30.4 8l-208 104-209.6-104c-20.8-11.2-48-9.6-67.2 4.8s-30.4 40-25.6 64l43.2 224-164.8 153.6c-17.6 17.6-24 44.8-17.6 67.2 8 24 27.2 41.6 52.8 44.8l228.8 41.6 102.4 208c11.2 22.4 33.6 36.8 57.6 36.8s48-14.4 57.6-36.8l102.4-208 228.8-40c24-3.2 44.8-20.8 51.2-44.8 8-24 1.6-49.6-16-67.2l-164.8-155.2 41.6-224c4.8-25.6-6.4-49.6-25.6-64-9.6-8-22.4-12.8-36.8-12.8z"  horiz-adv-x="1024" />

    
    <glyph glyph-name="dianhua" unicode="&#59067;" d="M433.836614 304.947698c-101.29033 101.234098-198.115834 218.541369-151.683473 264.861265 66.298642 66.354874 124.115442 107.205945 6.585287 253.475804-117.473922 146.32609-195.882909 33.986668-260.173555-30.359188-74.111834-74.168066-3.906596-350.636655 269.381302-623.979762 273.231666-273.231666 549.812719-343.493136 624.035995-269.269861 64.289623 64.234414 176.573836 142.587168 30.302955 260.117323-146.159439 117.585364-187.177161 59.769587-253.532035-6.529055-46.48757-46.264686-163.627167 50.449375-264.916476 151.683474z"  horiz-adv-x="1024" />

    
    <glyph glyph-name="shang" unicode="&#58907;" d="M182.022037 566.022037l58.915708-58.915707L470.884003 737.052587v-865.052587h83.331977V735.935939l228.829608-228.829609 58.932375 58.915707L570.915708 837.084292 512 896l-58.949041-58.915708 0.016667-0.016666z"  horiz-adv-x="1024" />

    
    <glyph glyph-name="tianxie" unicode="&#58888;" d="M170.496 853.504h298.496c11.776 0 22.016-4.096 30.208-12.288 8.192-8.192 12.288-18.432 12.288-30.208 0-11.776-4.096-22.016-12.288-30.208-8.192-8.192-18.432-12.288-30.208-12.288h-298.496c-11.776 0-22.016-4.096-30.208-12.288-8.192-8.192-12.288-18.432-12.288-30.208v-682.496c0-11.776 4.096-22.016 12.288-30.208 8.192-8.192 18.432-12.288 30.208-12.288h682.496c11.776 0 22.016 4.096 30.208 12.288 8.192 8.192 12.288 18.432 12.288 30.208v298.496c0 11.776 4.096 22.016 12.288 30.208 8.192 8.192 18.432 12.288 30.208 12.288s22.016-4.096 30.208-12.288c8.192-8.192 12.288-18.432 12.288-30.208v-298.496c0-35.328-12.288-65.536-37.376-90.624s-55.296-37.376-90.624-37.376h-682.496c-35.328 0-65.536 12.288-90.624 37.376-25.088 25.088-37.376 55.296-37.376 90.624V725.504c0 35.328 12.288 65.536 37.376 90.624s55.808 37.376 91.136 37.376zM896 707.584l-353.792-353.792c-8.192-8.192-18.432-12.288-30.208-12.288-12.288 0-22.528 4.096-30.72 12.288-8.192 8.192-12.288 18.432-12.288 30.72 0 11.776 4.096 22.016 12.288 30.208l353.792 353.792 83.968 85.504h18.944c11.776 0 22.016-4.096 30.208-12.288 8.192-8.192 12.288-18.432 12.288-30.208v-17.92L896 707.584z"  horiz-adv-x="1024" />

    
    <glyph glyph-name="icon_caiseqq" unicode="&#58884;" d="M504.613 17.37c0-43.41-63.48-78.603-141.785-78.603-78.304 0-141.784 35.193-141.784 78.604 0 43.414 63.48 78.605 141.784 78.605 78.305 0 141.785-35.192 141.785-78.605z m153.056 78.606c-78.305 0-141.784-35.192-141.784-78.605 0-43.412 63.478-78.604 141.784-78.604 78.305 0 141.784 35.193 141.784 78.604 0 43.413-63.48 78.605-141.784 78.605zM823.775 394.374s-10.73 10.999-22.245 21.179V541.199c0 160.71-130.278 290.987-290.985 290.987-160.706 0-290.983-130.278-290.983-290.987v-125.646c-11.516-10.18-22.247-21.179-22.247-21.179-18.984-28.474-64.07-102.038-64.07-171.444 0-69.41 18.984-81.276 26.103-81.87 6.602-0.55 31.063 6.052 60.133 50.546C258.823 60.79 374.118-33.943 510.25-33.943c136.346 0 251.794 95.03 290.958 226.17 29.246-45.055 53.904-51.717 60.537-51.166 7.118 0.595 26.103 12.46 26.103 81.87-0.001 69.405-45.088 142.968-64.073 171.443zM296.46 344.543a374.82 374.82 0 0 1-3.465-51.017c0-158.907 98.987-287.722 221.091-287.722 122.106 0 221.092 128.815 221.092 287.722a374.647 374.647 0 0 1-3.466 51.017H296.46z m137.557 354.165c-32.435 0-58.731-35.66-58.731-79.643 0-43.988 26.295-79.644 58.731-79.644 32.437 0 58.732 35.656 58.732 79.644-0.001 43.983-26.296 79.643-58.732 79.643z m9.788-112.42c-11.794 0-21.356 14.607-21.356 32.63 0 18.017 9.562 32.625 21.356 32.625 11.796 0 21.357-14.607 21.357-32.626 0-18.022-9.561-32.629-21.357-32.629z m145.049 112.42c-32.437 0-58.733-35.66-58.733-79.643 0-43.988 26.295-79.644 58.733-79.644 32.436 0 58.73 35.656 58.73 79.644 0 43.983-26.295 79.643-58.73 79.643z m9.91-82.612l-0.03-0.005c0-0.022 0.022-0.034 0.022-0.055 0-0.896-0.724-1.62-1.618-1.62-0.738 0-1.258 0.545-1.453 1.219l-0.062-0.01v-0.151c-3.74 9.311-10.36 15.601-18.042 15.601-7.677 0-14.293-6.28-18.035-15.587l-0.059 0.04-0.056 0.01c-0.265-0.556-0.722-1-1.379-1a1.648 1.648 0 0 0-1.646 1.645c0 0.017 0.02 0.026 0.02 0.042l-0.037 0.01c-0.058 0.892-0.166 1.763-0.166 2.68 0 18.022 9.562 32.63 21.357 32.63 11.794 0 21.355-14.607 21.355-32.63 0.003-0.966-0.108-1.883-0.171-2.819zM280.23 360.56c-5.34-26.697-16.61-146.531-11.272-173.227 5.337-26.696 27.795-22.237 59.918-22.544 31.144-0.292 67.628-8.896 68.222 30.256 0.594 39.155 0.594 116.274 9.492 144.754 8.897 28.473-126.36 20.76-126.36 20.76zM273.127 303.357l125.27-40.494c1.087 30.756 3.287 61.237 8.193 76.936 8.9 28.473-126.36 20.76-126.36 20.76-1.945-9.715-4.674-31.783-7.103-57.202zM511.139 428.783c97.636 0 176.784 35.595 176.784 57.545 0 16.608-79.148 33.813-176.784 33.813-97.637 0-176.786-15.426-176.786-33.813 0-20.766 79.148-57.545 176.786-57.545zM512.92 407.425s112.119-1.184 201.7 36.78c89.577 37.966 88.69 42.268 98.478 42.268 9.787 0 21.354-14.093 26.249-39.525 4.894-25.434 10.68-45.457-10.233-57.912-20.912-12.458-157.952-92.993-312.342-92.993h-7.71c-154.394 0-291.432 80.534-312.343 92.993-20.912 12.455-15.128 32.477-10.233 57.912 4.893 25.43 16.462 39.525 26.25 39.525 9.789 0 8.9-4.302 98.478-42.268 89.58-37.964 201.705-36.78 201.705-36.78z"  horiz-adv-x="1024" />

    


  </font>
</defs>
</svg>
